<svg width="198" height="60" viewBox="0 0 198 60" fill="none" xmlns="http://www.w3.org/2000/svg">
<rect width="198" height="60" rx="20" fill="white"/>
<path fill-rule="evenodd" clip-rule="evenodd" d="M52.8393 26.7456C54.3292 25.2557 56.6671 23.75 60 23.75C63.3329 23.75 65.6708 25.2557 67.1607 26.7456C67.9038 27.4887 68.4397 28.2308 68.7906 28.7881C68.9664 29.0672 69.0966 29.3015 69.184 29.4683C69.2277 29.5518 69.2608 29.6185 69.2835 29.6657C69.2949 29.6893 69.3037 29.708 69.3099 29.7216L69.3174 29.7379L69.3197 29.7431L69.3206 29.7449L69.3209 29.7456C69.321 29.7459 69.3211 29.7462 68.75 30C69.3211 30.2538 69.321 30.2541 69.3209 30.2544L69.3206 30.2551L69.3197 30.2569L69.3174 30.2621L69.3099 30.2784C69.3037 30.292 69.2949 30.3107 69.2835 30.3343C69.2608 30.3815 69.2277 30.4482 69.184 30.5317C69.0966 30.6985 68.9664 30.9328 68.7906 31.2119C68.4397 31.7692 67.9038 32.5113 67.1607 33.2544C65.6708 34.7443 63.3329 36.25 60 36.25C56.6671 36.25 54.3292 34.7443 52.8393 33.2544C52.0962 32.5113 51.5603 31.7692 51.2094 31.2119C51.0336 30.9328 50.9034 30.6985 50.816 30.5317C50.7723 30.4482 50.7392 30.3815 50.7165 30.3343C50.7051 30.3107 50.6963 30.292 50.6901 30.2784L50.6826 30.2621L50.6803 30.2569L50.6794 30.2551L50.6791 30.2544C50.679 30.2541 50.6789 30.2538 51.25 30C50.6789 29.7462 50.679 29.7459 50.6791 29.7456L50.6794 29.7449L50.6803 29.7431L50.6826 29.7379L50.6901 29.7216C50.6963 29.708 50.7051 29.6893 50.7165 29.6657C50.7392 29.6185 50.7723 29.5518 50.816 29.4683C50.9034 29.3015 51.0336 29.0672 51.2094 28.7881C51.5603 28.2308 52.0962 27.4887 52.8393 26.7456ZM51.25 30L50.6789 29.7462C50.607 29.9078 50.607 30.0922 50.6789 30.2538L51.25 30ZM51.9488 30C52.0223 30.1377 52.1279 30.3248 52.2672 30.5459C52.5803 31.0433 53.0601 31.7074 53.7232 32.3706C55.0458 33.6932 57.0829 35 60 35C62.9171 35 64.9542 33.6932 66.2768 32.3706C66.9399 31.7074 67.4197 31.0433 67.7328 30.5459C67.8721 30.3248 67.9777 30.1377 68.0512 30C67.9777 29.8623 67.8721 29.6752 67.7328 29.4541C67.4197 28.9567 66.9399 28.2926 66.2768 27.6294C64.9542 26.3068 62.9171 25 60 25C57.0829 25 55.0458 26.3068 53.7232 27.6294C53.0601 28.2926 52.5803 28.9567 52.2672 29.4541C52.1279 29.6752 52.0223 29.8623 51.9488 30ZM68.75 30L69.3211 30.2538C69.393 30.0922 69.393 29.9078 69.3211 29.7462L68.75 30Z" fill="#A259FF"/>
<path fill-rule="evenodd" clip-rule="evenodd" d="M60 27.5C58.6193 27.5 57.5 28.6193 57.5 30C57.5 31.3807 58.6193 32.5 60 32.5C61.3807 32.5 62.5 31.3807 62.5 30C62.5 28.6193 61.3807 27.5 60 27.5ZM56.25 30C56.25 27.9289 57.9289 26.25 60 26.25C62.0711 26.25 63.75 27.9289 63.75 30C63.75 32.0711 62.0711 33.75 60 33.75C57.9289 33.75 56.25 32.0711 56.25 30Z" fill="#A259FF"/>
<path d="M87.482 24.28C88.442 24.28 89.2847 24.4453 90.01 24.776C90.7353 25.1067 91.354 25.5973 91.866 26.248L90.634 27.672C90.1967 27.1173 89.7167 26.712 89.194 26.456C88.682 26.1893 88.0847 26.056 87.402 26.056C86.954 26.056 86.5807 26.1147 86.282 26.232C85.994 26.3493 85.7807 26.504 85.642 26.696C85.514 26.888 85.45 27.1013 85.45 27.336C85.45 27.624 85.562 27.8693 85.786 28.072C86.01 28.264 86.394 28.424 86.938 28.552L88.906 29C89.9513 29.2347 90.698 29.5867 91.146 30.056C91.6047 30.5147 91.834 31.112 91.834 31.848C91.834 32.5413 91.6527 33.1387 91.29 33.64C90.9273 34.1307 90.4207 34.5093 89.77 34.776C89.1193 35.032 88.3727 35.16 87.53 35.16C86.794 35.16 86.1167 35.0747 85.498 34.904C84.89 34.7227 84.346 34.4773 83.866 34.168C83.386 33.8587 82.986 33.5013 82.666 33.096L83.914 31.608C84.1593 31.9493 84.4633 32.2533 84.826 32.52C85.1887 32.7867 85.5993 33 86.058 33.16C86.5273 33.3093 87.018 33.384 87.53 33.384C87.9673 33.384 88.3353 33.336 88.634 33.24C88.9433 33.1333 89.1727 32.9893 89.322 32.808C89.482 32.616 89.562 32.3867 89.562 32.12C89.562 31.8427 89.466 31.608 89.274 31.416C89.0927 31.2133 88.7513 31.0587 88.25 30.952L86.106 30.472C85.4873 30.3227 84.954 30.1307 84.506 29.896C84.0687 29.6507 83.7327 29.3413 83.498 28.968C83.274 28.584 83.162 28.1307 83.162 27.608C83.162 26.9787 83.3327 26.4133 83.674 25.912C84.0153 25.4107 84.506 25.016 85.146 24.728C85.7967 24.4293 86.5753 24.28 87.482 24.28ZM97.4109 35.16C96.5682 35.16 95.8322 34.9947 95.2029 34.664C94.5842 34.3333 94.1042 33.8587 93.7629 33.24C93.4215 32.6213 93.2509 31.8747 93.2509 31C93.2509 30.1253 93.4215 29.3787 93.7629 28.76C94.1042 28.1413 94.5789 27.6667 95.1869 27.336C95.8055 27.0053 96.5095 26.84 97.2989 26.84C98.1095 26.84 98.7975 27.0053 99.3629 27.336C99.9282 27.656 100.36 28.0987 100.659 28.664C100.958 29.2187 101.107 29.8533 101.107 30.568C101.107 30.7813 101.102 30.984 101.091 31.176C101.08 31.368 101.064 31.5387 101.043 31.688H94.6589V30.168H100.083L99.0269 30.552C99.0269 29.88 98.8722 29.3627 98.5629 29C98.2642 28.6373 97.8375 28.456 97.2829 28.456C96.8775 28.456 96.5255 28.552 96.2269 28.744C95.9389 28.936 95.7202 29.224 95.5709 29.608C95.4215 29.9813 95.3469 30.456 95.3469 31.032C95.3469 31.5973 95.4269 32.0667 95.5869 32.44C95.7575 32.8027 95.9922 33.0747 96.2909 33.256C96.6002 33.4373 96.9682 33.528 97.3949 33.528C97.8642 33.528 98.2429 33.4373 98.5309 33.256C98.8189 33.0747 99.0429 32.824 99.2029 32.504L100.947 33.176C100.776 33.592 100.515 33.9493 100.163 34.248C99.8215 34.5467 99.4109 34.776 98.9309 34.936C98.4615 35.0853 97.9549 35.16 97.4109 35.16ZM106.677 35.16C105.834 35.16 105.098 34.9947 104.469 34.664C103.85 34.3333 103.37 33.8587 103.029 33.24C102.687 32.6213 102.517 31.8747 102.517 31C102.517 30.1253 102.687 29.3787 103.029 28.76C103.37 28.1413 103.845 27.6667 104.453 27.336C105.071 27.0053 105.775 26.84 106.565 26.84C107.375 26.84 108.063 27.0053 108.629 27.336C109.194 27.656 109.626 28.0987 109.925 28.664C110.223 29.2187 110.373 29.8533 110.373 30.568C110.373 30.7813 110.367 30.984 110.357 31.176C110.346 31.368 110.33 31.5387 110.309 31.688H103.924V30.168H109.349L108.293 30.552C108.293 29.88 108.138 29.3627 107.829 29C107.53 28.6373 107.103 28.456 106.549 28.456C106.143 28.456 105.791 28.552 105.493 28.744C105.205 28.936 104.986 29.224 104.837 29.608C104.687 29.9813 104.613 30.456 104.613 31.032C104.613 31.5973 104.693 32.0667 104.853 32.44C105.023 32.8027 105.258 33.0747 105.557 33.256C105.866 33.4373 106.234 33.528 106.661 33.528C107.13 33.528 107.509 33.4373 107.797 33.256C108.085 33.0747 108.309 32.824 108.469 32.504L110.213 33.176C110.042 33.592 109.781 33.9493 109.429 34.248C109.087 34.5467 108.677 34.776 108.197 34.936C107.727 35.0853 107.221 35.16 106.677 35.16ZM126.417 24.44V35H123.889L120.193 28.792L119.281 27.064H119.265L119.329 28.888V35H117.345V24.44H119.857L123.553 30.632L124.465 32.376H124.497L124.433 30.552V24.44H126.417ZM137.077 26.216H131.381V28.904H135.877V30.68H131.381V35H129.173V24.44H137.077V26.216ZM147.322 24.44V26.216H143.786V35H141.578V26.216H138.026V24.44H147.322Z" fill="#2B2B2B"/>
</svg>
