<svg width="90" height="13" viewBox="0 0 90 13" fill="none" xmlns="http://www.w3.org/2000/svg">
<path d="M4.95419 12.16C3.98352 12.16 3.13019 11.9467 2.39419 11.52C1.66885 11.0933 1.10352 10.4747 0.698188 9.664C0.292854 8.85333 0.0901875 7.87733 0.0901875 6.736C0.0901875 5.60533 0.303521 4.63467 0.730188 3.824C1.15685 3.00267 1.75952 2.37333 2.53819 1.936C3.32752 1.49867 4.23952 1.28 5.27419 1.28C6.41552 1.28 7.33819 1.49333 8.04219 1.92C8.74619 2.336 9.30619 2.98667 9.72219 3.872L7.67419 4.752C7.50352 4.18667 7.21019 3.77067 6.79419 3.504C6.38885 3.22667 5.88752 3.088 5.29019 3.088C4.69285 3.088 4.17552 3.232 3.73819 3.52C3.30085 3.79733 2.96485 4.208 2.73019 4.752C2.49552 5.28533 2.37819 5.94133 2.37819 6.72C2.37819 7.52 2.49019 8.19733 2.71419 8.752C2.93819 9.296 3.26885 9.70667 3.70619 9.984C4.15419 10.2507 4.70352 10.384 5.35419 10.384C5.70619 10.384 6.03152 10.3413 6.33019 10.256C6.63952 10.1707 6.90619 10.0427 7.13019 9.872C7.35419 9.70133 7.53019 9.48267 7.65819 9.216C7.78619 8.94933 7.85019 8.64 7.85019 8.288V8.048H5.08219V6.432H9.75419V12H8.20219L8.04219 9.696L8.42619 9.968C8.19152 10.672 7.77552 11.216 7.17819 11.6C6.59152 11.9733 5.85019 12.16 4.95419 12.16ZM15.6687 12.16C14.826 12.16 14.09 11.9947 13.4607 11.664C12.842 11.3333 12.362 10.8587 12.0207 10.24C11.6794 9.62133 11.5087 8.87467 11.5087 8C11.5087 7.12533 11.6794 6.37867 12.0207 5.76C12.362 5.14133 12.8367 4.66667 13.4447 4.336C14.0634 4.00533 14.7674 3.84 15.5567 3.84C16.3674 3.84 17.0554 4.00533 17.6207 4.336C18.186 4.656 18.618 5.09867 18.9167 5.664C19.2154 6.21867 19.3647 6.85333 19.3647 7.568C19.3647 7.78133 19.3594 7.984 19.3487 8.176C19.338 8.368 19.322 8.53867 19.3007 8.688H12.9167V7.168H18.3407L17.2847 7.552C17.2847 6.88 17.13 6.36267 16.8207 6C16.522 5.63733 16.0954 5.456 15.5407 5.456C15.1354 5.456 14.7834 5.552 14.4847 5.744C14.1967 5.936 13.978 6.224 13.8287 6.608C13.6794 6.98133 13.6047 7.456 13.6047 8.032C13.6047 8.59733 13.6847 9.06667 13.8447 9.44C14.0154 9.80267 14.25 10.0747 14.5487 10.256C14.858 10.4373 15.226 10.528 15.6527 10.528C16.122 10.528 16.5007 10.4373 16.7887 10.256C17.0767 10.0747 17.3007 9.824 17.4607 9.504L19.2047 10.176C19.034 10.592 18.7727 10.9493 18.4207 11.248C18.0794 11.5467 17.6687 11.776 17.1887 11.936C16.7194 12.0853 16.2127 12.16 15.6687 12.16ZM23.9137 1.552V9.392C23.9137 9.776 24.0097 10.0587 24.2017 10.24C24.4044 10.4107 24.6764 10.496 25.0177 10.496C25.2844 10.496 25.519 10.4587 25.7217 10.384C25.9244 10.2987 26.1057 10.1867 26.2657 10.048L26.6177 11.504C26.3617 11.7067 26.0417 11.8667 25.6577 11.984C25.2737 12.1013 24.8684 12.16 24.4417 12.16C23.9084 12.16 23.4337 12.08 23.0177 11.92C22.6124 11.76 22.2924 11.504 22.0577 11.152C21.8337 10.8 21.7217 10.3307 21.7217 9.744V2.16L23.9137 1.552ZM26.4737 4V5.632H20.2497V4H26.4737ZM36.9273 1.28C37.8873 1.28 38.73 1.44533 39.4553 1.776C40.1806 2.10667 40.7993 2.59733 41.3113 3.248L40.0793 4.672C39.642 4.11733 39.162 3.712 38.6393 3.456C38.1273 3.18933 37.53 3.056 36.8473 3.056C36.3993 3.056 36.026 3.11467 35.7273 3.232C35.4393 3.34933 35.226 3.504 35.0873 3.696C34.9593 3.888 34.8953 4.10133 34.8953 4.336C34.8953 4.624 35.0073 4.86933 35.2313 5.072C35.4553 5.264 35.8393 5.424 36.3833 5.552L38.3513 6C39.3966 6.23467 40.1433 6.58667 40.5913 7.056C41.05 7.51467 41.2793 8.112 41.2793 8.848C41.2793 9.54133 41.098 10.1387 40.7353 10.64C40.3726 11.1307 39.866 11.5093 39.2153 11.776C38.5646 12.032 37.818 12.16 36.9753 12.16C36.2393 12.16 35.562 12.0747 34.9433 11.904C34.3353 11.7227 33.7913 11.4773 33.3113 11.168C32.8313 10.8587 32.4313 10.5013 32.1113 10.096L33.3593 8.608C33.6046 8.94933 33.9086 9.25333 34.2713 9.52C34.634 9.78667 35.0446 10 35.5033 10.16C35.9726 10.3093 36.4633 10.384 36.9753 10.384C37.4126 10.384 37.7806 10.336 38.0793 10.24C38.3886 10.1333 38.618 9.98933 38.7673 9.808C38.9273 9.616 39.0073 9.38667 39.0073 9.12C39.0073 8.84267 38.9113 8.608 38.7193 8.416C38.538 8.21333 38.1966 8.05867 37.6953 7.952L35.5513 7.472C34.9326 7.32267 34.3993 7.13067 33.9513 6.896C33.514 6.65067 33.178 6.34133 32.9433 5.968C32.7193 5.584 32.6073 5.13067 32.6073 4.608C32.6073 3.97867 32.778 3.41333 33.1193 2.912C33.4606 2.41067 33.9513 2.016 34.5913 1.728C35.242 1.42933 36.0206 1.28 36.9273 1.28ZM45.9762 1.552V9.392C45.9762 9.776 46.0722 10.0587 46.2642 10.24C46.4669 10.4107 46.7389 10.496 47.0802 10.496C47.3469 10.496 47.5815 10.4587 47.7842 10.384C47.9869 10.2987 48.1682 10.1867 48.3282 10.048L48.6802 11.504C48.4242 11.7067 48.1042 11.8667 47.7202 11.984C47.3362 12.1013 46.9309 12.16 46.5042 12.16C45.9709 12.16 45.4962 12.08 45.0802 11.92C44.6749 11.76 44.3549 11.504 44.1202 11.152C43.8962 10.8 43.7842 10.3307 43.7842 9.744V2.16L45.9762 1.552ZM48.5362 4V5.632H42.3122V4H48.5362ZM54.6573 6.896C54.6573 6.43733 54.524 6.08 54.2573 5.824C54.0013 5.568 53.66 5.44 53.2333 5.44C52.8386 5.44 52.492 5.54133 52.1933 5.744C51.8946 5.94667 51.676 6.28267 51.5373 6.752L49.6653 6.176C49.8466 5.472 50.2413 4.90667 50.8493 4.48C51.468 4.05333 52.2946 3.84 53.3293 3.84C54.0333 3.84 54.6466 3.952 55.1693 4.176C55.692 4.38933 56.0973 4.71467 56.3853 5.152C56.684 5.58933 56.8333 6.13867 56.8333 6.8V10.048C56.8333 10.4533 57.0253 10.656 57.4093 10.656C57.5906 10.656 57.7613 10.6293 57.9213 10.576L57.7933 11.936C57.516 12.0747 57.1693 12.144 56.7533 12.144C56.38 12.144 56.044 12.08 55.7453 11.952C55.4466 11.824 55.212 11.632 55.0413 11.376C54.8706 11.1093 54.7853 10.7787 54.7853 10.384V10.32L55.1693 10.256C55.1053 10.6613 54.9293 11.008 54.6413 11.296C54.3533 11.5733 54.0013 11.7867 53.5853 11.936C53.18 12.0853 52.7586 12.16 52.3213 12.16C51.7773 12.16 51.308 12.08 50.9133 11.92C50.5186 11.7493 50.2146 11.504 50.0013 11.184C49.788 10.864 49.6813 10.4693 49.6813 10C49.6813 9.40267 49.8733 8.91733 50.2573 8.544C50.6413 8.16 51.1906 7.89867 51.9053 7.76L54.9133 7.152L54.8973 8.512L52.9773 8.896C52.6146 8.97067 52.3373 9.072 52.1453 9.2C51.964 9.31733 51.8733 9.51467 51.8733 9.792C51.8733 10.0587 51.9693 10.2613 52.1613 10.4C52.364 10.5387 52.604 10.608 52.8813 10.608C53.1053 10.608 53.324 10.5813 53.5373 10.528C53.7506 10.4747 53.9426 10.3893 54.1133 10.272C54.284 10.1547 54.4173 9.99467 54.5133 9.792C54.6093 9.58933 54.6573 9.344 54.6573 9.056V6.896ZM59.2848 12V4H61.1888L61.3328 5.568C61.5461 5.01333 61.8555 4.58667 62.2608 4.288C62.6768 3.98933 63.1941 3.84 63.8128 3.84C63.9941 3.84 64.1595 3.856 64.3088 3.888C64.4581 3.92 64.5808 3.96267 64.6768 4.016L64.4208 5.856C64.3141 5.81333 64.1808 5.78133 64.0208 5.76C63.8715 5.73867 63.6741 5.728 63.4288 5.728C63.1088 5.728 62.7995 5.808 62.5008 5.968C62.2021 6.11733 61.9568 6.352 61.7648 6.672C61.5728 6.98133 61.4768 7.376 61.4768 7.856V12H59.2848ZM68.5699 1.552V9.392C68.5699 9.776 68.6659 10.0587 68.8579 10.24C69.0606 10.4107 69.3326 10.496 69.6739 10.496C69.9406 10.496 70.1753 10.4587 70.3779 10.384C70.5806 10.2987 70.7619 10.1867 70.9219 10.048L71.2739 11.504C71.0179 11.7067 70.6979 11.8667 70.3139 11.984C69.9299 12.1013 69.5246 12.16 69.0979 12.16C68.5646 12.16 68.0899 12.08 67.6739 11.92C67.2686 11.76 66.9486 11.504 66.7139 11.152C66.4899 10.8 66.3779 10.3307 66.3779 9.744V2.16L68.5699 1.552ZM71.1299 4V5.632H64.9059V4H71.1299ZM76.3249 12.16C75.4823 12.16 74.7463 11.9947 74.1169 11.664C73.4983 11.3333 73.0183 10.8587 72.6769 10.24C72.3356 9.62133 72.1649 8.87467 72.1649 8C72.1649 7.12533 72.3356 6.37867 72.6769 5.76C73.0183 5.14133 73.4929 4.66667 74.1009 4.336C74.7196 4.00533 75.4236 3.84 76.2129 3.84C77.0236 3.84 77.7116 4.00533 78.2769 4.336C78.8423 4.656 79.2743 5.09867 79.5729 5.664C79.8716 6.21867 80.0209 6.85333 80.0209 7.568C80.0209 7.78133 80.0156 7.984 80.0049 8.176C79.9943 8.368 79.9783 8.53867 79.9569 8.688H73.5729V7.168H78.9969L77.9409 7.552C77.9409 6.88 77.7863 6.36267 77.4769 6C77.1783 5.63733 76.7516 5.456 76.1969 5.456C75.7916 5.456 75.4396 5.552 75.1409 5.744C74.8529 5.936 74.6343 6.224 74.4849 6.608C74.3356 6.98133 74.2609 7.456 74.2609 8.032C74.2609 8.59733 74.3409 9.06667 74.5009 9.44C74.6716 9.80267 74.9063 10.0747 75.2049 10.256C75.5143 10.4373 75.8823 10.528 76.3089 10.528C76.7783 10.528 77.1569 10.4373 77.4449 10.256C77.7329 10.0747 77.9569 9.824 78.1169 9.504L79.8609 10.176C79.6903 10.592 79.4289 10.9493 79.0769 11.248C78.7356 11.5467 78.3249 11.776 77.8449 11.936C77.3756 12.0853 76.8689 12.16 76.3249 12.16ZM84.9026 12.16C84.2412 12.16 83.6492 11.9947 83.1266 11.664C82.6146 11.3333 82.2092 10.8587 81.9106 10.24C81.6226 9.62133 81.4786 8.88 81.4786 8.016C81.4786 7.13067 81.6332 6.37867 81.9426 5.76C82.2519 5.13067 82.6679 4.656 83.1906 4.336C83.7239 4.00533 84.3212 3.84 84.9826 3.84C85.6866 3.84 86.2679 4.04267 86.7266 4.448C87.1852 4.85333 87.4839 5.376 87.6226 6.016L87.4146 6.272V0.495999H89.6066V12H87.6386L87.4946 9.568L87.7666 9.696C87.6919 10.1973 87.5212 10.6347 87.2546 11.008C86.9879 11.3707 86.6519 11.6533 86.2466 11.856C85.8412 12.0587 85.3932 12.16 84.9026 12.16ZM85.5426 10.48C85.9266 10.48 86.2572 10.384 86.5346 10.192C86.8119 9.98933 87.0252 9.696 87.1746 9.312C87.3346 8.928 87.4146 8.46933 87.4146 7.936C87.4146 7.424 87.3399 6.992 87.1906 6.64C87.0412 6.27733 86.8279 6 86.5506 5.808C86.2732 5.616 85.9479 5.52 85.5746 5.52C84.9772 5.52 84.5079 5.73333 84.1666 6.16C83.8359 6.576 83.6706 7.18933 83.6706 8C83.6706 8.81067 83.8359 9.42933 84.1666 9.856C84.4972 10.272 84.9559 10.48 85.5426 10.48Z" fill="white"/>
</svg>
