<svg width="30" height="30" viewBox="0 0 30 30" fill="none" xmlns="http://www.w3.org/2000/svg">
<rect width="30" height="30" rx="15" fill="#2B2B2B"/>
<path d="M14.8536 21.224C14.2882 21.224 13.7762 21.1493 13.3176 21C12.8589 20.84 12.4642 20.6267 12.1336 20.36C11.8029 20.0827 11.5469 19.7627 11.3656 19.4C11.1949 19.0267 11.1096 18.6213 11.1096 18.184V17.992C11.1096 17.608 11.1682 17.2667 11.2856 16.968C11.4029 16.6693 11.5576 16.408 11.7496 16.184C11.9416 15.96 12.1602 15.7733 12.4056 15.624C12.6616 15.4747 12.9229 15.3627 13.1896 15.288V15.096C12.9442 15.0213 12.7149 14.9093 12.5016 14.76C12.2882 14.6107 12.0962 14.4347 11.9256 14.232C11.7656 14.0293 11.6376 13.8 11.5416 13.544C11.4456 13.2773 11.3976 12.9893 11.3976 12.68V12.488C11.3976 12.0613 11.4829 11.672 11.6536 11.32C11.8242 10.9573 12.0642 10.648 12.3736 10.392C12.6936 10.136 13.0669 9.93867 13.4936 9.8C13.9309 9.65067 14.4162 9.576 14.9496 9.576H15.0456C15.5682 9.576 16.0482 9.65067 16.4856 9.8C16.9229 9.93867 17.2962 10.136 17.6056 10.392C17.9256 10.648 18.1709 10.9573 18.3416 11.32C18.5122 11.672 18.5976 12.0613 18.5976 12.488V12.68C18.5976 12.9893 18.5496 13.2773 18.4536 13.544C18.3576 13.8 18.2242 14.0293 18.0536 14.232C17.8936 14.4347 17.7016 14.6107 17.4776 14.76C17.2642 14.9093 17.0402 15.0213 16.8056 15.096V15.288C17.0722 15.3627 17.3282 15.4747 17.5736 15.624C17.8296 15.7733 18.0536 15.96 18.2456 16.184C18.4376 16.408 18.5922 16.6693 18.7096 16.968C18.8269 17.2667 18.8856 17.608 18.8856 17.992V18.184C18.8856 18.6213 18.7949 19.0267 18.6136 19.4C18.4429 19.7627 18.1922 20.0827 17.8616 20.36C17.5309 20.6267 17.1362 20.84 16.6776 21C16.2189 21.1493 15.7069 21.224 15.1416 21.224H14.8536ZM15.0936 20.008C15.8189 20.008 16.4056 19.8213 16.8536 19.448C17.3122 19.0747 17.5416 18.5893 17.5416 17.992V17.896C17.5416 17.2347 17.3069 16.7227 16.8376 16.36C16.3789 15.9973 15.7816 15.816 15.0456 15.816H14.9496C14.2136 15.816 13.6109 15.9973 13.1416 16.36C12.6829 16.7227 12.4536 17.2347 12.4536 17.896V17.992C12.4536 18.5893 12.6776 19.0747 13.1256 19.448C13.5842 19.8213 14.1762 20.008 14.9016 20.008H15.0936ZM14.9976 14.568C15.6696 14.568 16.2136 14.392 16.6296 14.04C17.0456 13.688 17.2536 13.2453 17.2536 12.712V12.616C17.2536 12.072 17.0456 11.6347 16.6296 11.304C16.2242 10.9627 15.6802 10.792 14.9976 10.792C14.3149 10.792 13.7656 10.9627 13.3496 11.304C12.9442 11.6347 12.7416 12.072 12.7416 12.616V12.712C12.7416 13.2453 12.9496 13.688 13.3656 14.04C13.7816 14.392 14.3256 14.568 14.9976 14.568Z" fill="#858584"/>
</svg>
