<svg width="30" height="30" viewBox="0 0 30 30" fill="none" xmlns="http://www.w3.org/2000/svg">
<rect width="30" height="30" rx="15" fill="#2B2B2B"/>
<path d="M9.50713 19.752V10.392H9.31512L7.47513 14.6H6.14713V14.504L8.24313 9.8H10.8511V19.752H14.0191V21H6.33913V19.752H9.50713ZM23.704 19.752V21H16.12V19.08C16.12 18.568 16.2053 18.1253 16.376 17.752C16.5467 17.368 16.7867 17.0427 17.096 16.776C17.416 16.4987 17.8 16.2693 18.248 16.088C18.696 15.9067 19.2027 15.752 19.768 15.624C20.7173 15.4107 21.4 15.1067 21.816 14.712C22.2427 14.3173 22.456 13.832 22.456 13.256V13.16C22.456 12.872 22.408 12.5893 22.312 12.312C22.216 12.0347 22.0667 11.784 21.864 11.56C21.6613 11.336 21.4 11.16 21.08 11.032C20.7707 10.8933 20.3973 10.824 19.96 10.824C19.1387 10.824 18.4987 11.0747 18.04 11.576C17.592 12.0773 17.368 12.744 17.368 13.576V14.28H16.024V13.48C16.024 12.968 16.1093 12.4773 16.28 12.008C16.4507 11.5387 16.7013 11.1227 17.032 10.76C17.3627 10.3973 17.7733 10.1093 18.264 9.896C18.7547 9.68267 19.32 9.576 19.96 9.576C20.6107 9.576 21.176 9.67733 21.656 9.88C22.136 10.072 22.536 10.3333 22.856 10.664C23.176 10.984 23.4107 11.352 23.56 11.768C23.72 12.1733 23.8 12.5893 23.8 13.016V13.304C23.8 14.1573 23.5333 14.888 23 15.496C22.4667 16.0933 21.6133 16.52 20.44 16.776C19.416 17 18.664 17.2987 18.184 17.672C17.704 18.0347 17.464 18.568 17.464 19.272V19.752H23.704Z" fill="#858584"/>
</svg>
