<svg width="30" height="30" viewBox="0 0 30 30" fill="none" xmlns="http://www.w3.org/2000/svg">
<rect width="30" height="30" rx="15" fill="#2B2B2B"/>
<path d="M11.3496 15.72V9.8H18.3576V11.048H12.6616V15.048H12.8536C12.9602 14.8347 13.0989 14.632 13.2696 14.44C13.4402 14.2373 13.6376 14.0613 13.8616 13.912C14.0962 13.7627 14.3576 13.6453 14.6456 13.56C14.9336 13.464 15.2536 13.416 15.6056 13.416C16.1176 13.416 16.5869 13.5013 17.0136 13.672C17.4509 13.8427 17.8242 14.0827 18.1336 14.392C18.4429 14.7013 18.6829 15.0747 18.8536 15.512C19.0349 15.9493 19.1256 16.4347 19.1256 16.968V17.256C19.1256 17.7893 19.0402 18.296 18.8696 18.776C18.6989 19.2453 18.4482 19.6667 18.1176 20.04C17.7869 20.4027 17.3762 20.6907 16.8856 20.904C16.3949 21.1173 15.8296 21.224 15.1896 21.224C14.5389 21.224 13.9629 21.128 13.4616 20.936C12.9602 20.744 12.5389 20.4773 12.1976 20.136C11.8562 19.7947 11.5949 19.3947 11.4136 18.936C11.2429 18.4667 11.1576 17.96 11.1576 17.416V16.968H12.5016V17.32C12.5016 18.2053 12.7469 18.872 13.2376 19.32C13.7389 19.7573 14.3896 19.976 15.1896 19.976C15.6162 19.976 15.9896 19.9013 16.3096 19.752C16.6402 19.592 16.9122 19.384 17.1256 19.128C17.3496 18.8613 17.5149 18.5573 17.6216 18.216C17.7282 17.864 17.7816 17.5013 17.7816 17.128V17.032C17.7816 16.7013 17.7229 16.392 17.6056 16.104C17.4989 15.816 17.3442 15.5653 17.1416 15.352C16.9496 15.1387 16.7096 14.9733 16.4216 14.856C16.1442 14.728 15.8402 14.664 15.5096 14.664C15.2856 14.664 15.0776 14.696 14.8856 14.76C14.7042 14.824 14.5442 14.9093 14.4056 15.016C14.2669 15.112 14.1496 15.224 14.0536 15.352C13.9682 15.48 13.9096 15.6027 13.8776 15.72H11.3496Z" fill="#858584"/>
</svg>
