<svg width="30" height="30" viewBox="0 0 30 30" fill="none" xmlns="http://www.w3.org/2000/svg">
<rect width="30" height="30" rx="15" fill="#2B2B2B"/>
<path d="M9.50713 19.752V10.392H9.31512L7.47513 14.6H6.14713V14.504L8.24313 9.8H10.8511V19.752H14.0191V21H6.33913V19.752H9.50713ZM15.96 14.152C15.96 12.7013 16.3067 11.576 17 10.776C17.6933 9.976 18.6587 9.576 19.896 9.576C21.1333 9.576 22.0987 9.976 22.792 10.776C23.4853 11.576 23.832 12.7013 23.832 14.152V16.648C23.832 18.1413 23.4853 19.2773 22.792 20.056C22.0987 20.8347 21.1333 21.224 19.896 21.224C18.6587 21.224 17.6933 20.8347 17 20.056C16.3067 19.2773 15.96 18.1413 15.96 16.648V14.152ZM19.896 20.008C20.76 20.008 21.4053 19.7093 21.832 19.112C22.2693 18.504 22.488 17.6507 22.488 16.552V14.248C22.488 13.736 22.4347 13.272 22.328 12.856C22.2213 12.4293 22.056 12.0667 21.832 11.768C21.6187 11.4587 21.3467 11.2187 21.016 11.048C20.696 10.8773 20.3227 10.792 19.896 10.792C19.4587 10.792 19.08 10.8773 18.76 11.048C18.44 11.2187 18.168 11.4587 17.944 11.768C17.7307 12.0667 17.5707 12.4293 17.464 12.856C17.3573 13.272 17.304 13.736 17.304 14.248V16.552C17.304 17.6507 17.5173 18.504 17.944 19.112C18.3813 19.7093 19.032 20.008 19.896 20.008ZM18.872 15.4C18.872 15.1227 18.9733 14.8827 19.176 14.68C19.3787 14.4773 19.6187 14.376 19.896 14.376C20.1733 14.376 20.4133 14.4773 20.616 14.68C20.8187 14.8827 20.92 15.1227 20.92 15.4C20.92 15.6773 20.8187 15.9173 20.616 16.12C20.4133 16.3227 20.1733 16.424 19.896 16.424C19.6187 16.424 19.3787 16.3227 19.176 16.12C18.9733 15.9173 18.872 15.6773 18.872 15.4Z" fill="#858584"/>
</svg>
