<svg width="30" height="30" viewBox="0 0 30 30" fill="none" xmlns="http://www.w3.org/2000/svg">
<rect width="30" height="30" rx="15" fill="#2B2B2B"/>
<path d="M17.3496 13.064C17.3496 12.3707 17.1362 11.816 16.7096 11.4C16.2829 10.9733 15.6909 10.76 14.9336 10.76C14.5709 10.76 14.2349 10.824 13.9256 10.952C13.6269 11.08 13.3656 11.2667 13.1416 11.512C12.9282 11.7467 12.7576 12.0293 12.6296 12.36C12.5122 12.6907 12.4536 13.0533 12.4536 13.448V15.112H12.6456C12.9016 14.6427 13.2642 14.2747 13.7336 14.008C14.2136 13.7413 14.7469 13.608 15.3336 13.608C15.8456 13.608 16.3202 13.6933 16.7576 13.864C17.1949 14.024 17.5682 14.264 17.8776 14.584C18.1976 14.904 18.4429 15.2933 18.6136 15.752C18.7949 16.2 18.8856 16.712 18.8856 17.288V17.48C18.8856 18.0347 18.7842 18.5413 18.5816 19C18.3896 19.4587 18.1176 19.8533 17.7656 20.184C17.4242 20.5147 17.0136 20.7707 16.5336 20.952C16.0642 21.1333 15.5522 21.224 14.9976 21.224C14.4429 21.224 13.9256 21.1333 13.4456 20.952C12.9762 20.7707 12.5656 20.52 12.2136 20.2C11.8722 19.8693 11.6002 19.48 11.3976 19.032C11.2056 18.5733 11.1096 18.072 11.1096 17.528V13.448C11.1096 12.8613 11.2109 12.328 11.4136 11.848C11.6162 11.368 11.8936 10.9627 12.2456 10.632C12.5976 10.2907 13.0029 10.0293 13.4616 9.848C13.9309 9.66667 14.4322 9.576 14.9656 9.576C15.4989 9.576 15.9949 9.656 16.4536 9.816C16.9122 9.976 17.3069 10.2107 17.6376 10.52C17.9682 10.8187 18.2242 11.1867 18.4056 11.624C18.5976 12.0507 18.6936 12.5307 18.6936 13.064H17.3496ZM14.9976 20.04C15.3816 20.04 15.7282 19.9813 16.0376 19.864C16.3576 19.736 16.6296 19.56 16.8536 19.336C17.0776 19.112 17.2482 18.8453 17.3656 18.536C17.4829 18.2267 17.5416 17.8853 17.5416 17.512V17.32C17.5416 16.9467 17.4776 16.6053 17.3496 16.296C17.2216 15.9867 17.0456 15.72 16.8216 15.496C16.5976 15.272 16.3256 15.1013 16.0056 14.984C15.6962 14.856 15.3602 14.792 14.9976 14.792C14.6349 14.792 14.2989 14.856 13.9896 14.984C13.6802 15.112 13.4082 15.288 13.1736 15.512C12.9496 15.736 12.7736 15.9973 12.6456 16.296C12.5176 16.5947 12.4536 16.9147 12.4536 17.256V17.56C12.4536 17.912 12.5122 18.2427 12.6296 18.552C12.7469 18.8507 12.9176 19.112 13.1416 19.336C13.3656 19.56 13.6322 19.736 13.9416 19.864C14.2616 19.9813 14.6136 20.04 14.9976 20.04Z" fill="#858584"/>
</svg>
