<svg width="30" height="30" viewBox="0 0 30 30" fill="none" xmlns="http://www.w3.org/2000/svg">
<rect width="30" height="30" rx="15" fill="#2B2B2B"/>
<path d="M12.6456 17.736C12.6456 18.4293 12.8589 18.9893 13.2856 19.416C13.7122 19.832 14.3042 20.04 15.0616 20.04C15.4242 20.04 15.7549 19.976 16.0536 19.848C16.3629 19.72 16.6242 19.5387 16.8376 19.304C17.0616 19.0587 17.2322 18.776 17.3496 18.456C17.4776 18.1253 17.5416 17.7573 17.5416 17.352V15.688H17.3496C17.1042 16.1573 16.7522 16.5253 16.2936 16.792C15.8349 17.0587 15.3016 17.192 14.6936 17.192C14.1709 17.192 13.6909 17.112 13.2536 16.952C12.8162 16.792 12.4376 16.5573 12.1176 16.248C11.7976 15.928 11.5469 15.544 11.3656 15.096C11.1949 14.648 11.1096 14.136 11.1096 13.56V13.368C11.1096 12.8133 11.2056 12.3067 11.3976 11.848C11.5896 11.3787 11.8562 10.9787 12.1976 10.648C12.5496 10.3067 12.9602 10.0453 13.4296 9.864C13.9096 9.672 14.4322 9.576 14.9976 9.576C15.5629 9.576 16.0802 9.672 16.5496 9.864C17.0296 10.0453 17.4402 10.3013 17.7816 10.632C18.1336 10.9627 18.4056 11.3573 18.5976 11.816C18.7896 12.2747 18.8856 12.776 18.8856 13.32V17.352C18.8856 17.9493 18.7842 18.488 18.5816 18.968C18.3896 19.4373 18.1176 19.8427 17.7656 20.184C17.4242 20.5147 17.0189 20.7707 16.5496 20.952C16.0802 21.1333 15.5736 21.224 15.0296 21.224C14.4856 21.224 13.9842 21.144 13.5256 20.984C13.0669 20.824 12.6722 20.5947 12.3416 20.296C12.0109 19.9867 11.7549 19.6187 11.5736 19.192C11.3922 18.7547 11.3016 18.2693 11.3016 17.736H12.6456ZM14.9976 10.76C14.6136 10.76 14.2616 10.824 13.9416 10.952C13.6322 11.08 13.3656 11.2613 13.1416 11.496C12.9176 11.7307 12.7469 12.008 12.6296 12.328C12.5122 12.6373 12.4536 12.9733 12.4536 13.336V13.528C12.4536 13.9013 12.5176 14.2427 12.6456 14.552C12.7736 14.8507 12.9496 15.112 13.1736 15.336C13.3976 15.5493 13.6642 15.7147 13.9736 15.832C14.2829 15.9493 14.6242 16.008 14.9976 16.008C15.3602 16.008 15.6962 15.9493 16.0056 15.832C16.3149 15.704 16.5816 15.5333 16.8056 15.32C17.0402 15.1067 17.2216 14.8507 17.3496 14.552C17.4776 14.2533 17.5416 13.9333 17.5416 13.592V13.288C17.5416 12.936 17.4829 12.6053 17.3656 12.296C17.2482 11.9867 17.0776 11.72 16.8536 11.496C16.6296 11.2613 16.3576 11.08 16.0376 10.952C15.7282 10.824 15.3816 10.76 14.9976 10.76Z" fill="#858584"/>
</svg>
