<svg width="247" height="60" viewBox="0 0 247 60" fill="none" xmlns="http://www.w3.org/2000/svg">
<rect x="1" y="1" width="245" height="58" rx="19" stroke="#A259FF" stroke-width="2"/>
<path fill-rule="evenodd" clip-rule="evenodd" d="M56.1705 32.4494C56.2805 32.7766 56.1045 33.131 55.7773 33.241C54.7179 33.5973 54.1549 34.4866 53.8537 35.391C53.7341 35.7501 53.6619 36.0958 53.6185 36.3817C53.9043 36.3383 54.2501 36.266 54.6092 36.1464C55.5136 35.8453 56.4029 35.2823 56.7592 34.2228C56.8692 33.8957 57.2236 33.7196 57.5508 33.8296C57.878 33.9397 58.054 34.2941 57.944 34.6213C57.4096 36.2103 56.088 36.9715 55.0041 37.3324C54.4566 37.5148 53.9439 37.6048 53.5698 37.6497C53.3818 37.6722 53.2264 37.6836 53.116 37.6894C53.0607 37.6924 53.0166 37.6939 52.9851 37.6946C52.9693 37.695 52.9567 37.6952 52.9474 37.6954L52.936 37.6955L52.9322 37.6955L52.9308 37.6955L52.9302 37.6955C52.9299 37.6955 52.9297 37.6955 52.9297 37.0705C52.3047 37.0705 52.3047 37.0702 52.3047 37.07L52.3047 37.0694L52.3047 37.068L52.3047 37.0642L52.3048 37.0528C52.3049 37.0435 52.3051 37.0309 52.3055 37.0151C52.3063 36.9836 52.3078 36.9394 52.3107 36.8842C52.3165 36.7738 52.328 36.6184 52.3505 36.4304C52.3954 36.0562 52.4854 35.5436 52.6678 34.9961C53.0287 33.9122 53.7899 32.5906 55.3789 32.0562C55.7061 31.9462 56.0605 32.1222 56.1705 32.4494ZM52.9297 37.0705H52.3047C52.3047 37.4157 52.5845 37.6955 52.9297 37.6955V37.0705Z" fill="#A259FF"/>
<path fill-rule="evenodd" clip-rule="evenodd" d="M66.5462 23.4541C65.8208 23.3494 64.0351 23.31 62.2076 25.1375L57.3448 30.0003L60 32.6555L64.8627 27.7927C66.6903 25.9652 66.6508 24.1795 66.5462 23.4541ZM66.7275 22.2173C65.7298 22.0728 63.5058 22.0716 61.3237 24.2536L56.019 29.5583C55.9018 29.6755 55.8359 29.8345 55.8359 30.0003C55.8359 30.166 55.9018 30.325 56.019 30.4422L59.5581 33.9813C59.8021 34.2254 60.1979 34.2254 60.4419 33.9813L65.7466 28.6766C67.9287 26.4945 67.9275 24.2705 67.783 23.2728C67.7465 23.0058 67.6235 22.758 67.4329 22.5674C67.2422 22.3768 66.9945 22.2538 66.7275 22.2173Z" fill="#A259FF"/>
<path fill-rule="evenodd" clip-rule="evenodd" d="M64.422 28.4922C64.7672 28.4922 65.047 28.772 65.047 29.1172V34.1641L65.0469 34.173C65.0423 34.5013 64.9086 34.8145 64.675 35.045L62.1527 37.575C61.9926 37.7349 61.7921 37.8484 61.5725 37.9033C61.353 37.9582 61.1227 37.9524 60.9061 37.8867C60.6896 37.8209 60.495 37.6976 60.343 37.5299C60.1912 37.3623 60.0877 37.1567 60.0435 36.9349C60.0434 36.9347 60.0435 36.9351 60.0435 36.9349L59.3873 33.6619C59.3195 33.3235 59.5388 32.9941 59.8773 32.9263C60.2157 32.8584 60.5451 33.0778 60.6129 33.4162L61.2694 36.6906L63.797 34.1552V29.1172C63.797 28.772 64.0768 28.4922 64.422 28.4922Z" fill="#A259FF"/>
<path fill-rule="evenodd" clip-rule="evenodd" d="M55.8262 24.9532L55.8351 24.9531H60.882C61.2272 24.9531 61.507 25.2329 61.507 25.5781C61.507 25.9233 61.2272 26.2031 60.882 26.2031H55.844L55.8389 26.2083L55.8389 26.2082L53.3086 28.7307L53.3096 28.7309L56.583 29.3872C56.9214 29.455 57.1408 29.7844 57.073 30.1229C57.0051 30.4613 56.6757 30.6807 56.3373 30.6128L53.0648 29.9567C53.0646 29.9567 53.0645 29.9567 53.0643 29.9566C52.8425 29.9124 52.6369 29.8089 52.4693 29.6571C52.3016 29.5052 52.1783 29.3105 52.1125 29.094C52.0468 28.8775 52.041 28.6471 52.0959 28.4276C52.1508 28.208 52.2643 28.0075 52.4242 27.8474L52.4251 27.8464L52.4251 27.8464L54.9542 25.3251C55.1848 25.0915 55.498 24.9579 55.8262 24.9532Z" fill="#A259FF"/>
<path d="M92.9257 24.44L89.0857 35H86.5097L82.6537 24.44H84.9897L87.2137 31.16L87.8217 33.24L88.4137 31.176L90.6537 24.44H92.9257ZM95.4044 25.848C94.9458 25.848 94.6044 25.752 94.3804 25.56C94.1564 25.3573 94.0444 25.064 94.0444 24.68C94.0444 24.2853 94.1564 23.992 94.3804 23.8C94.6044 23.5973 94.9458 23.496 95.4044 23.496C95.8631 23.496 96.2044 23.5973 96.4284 23.8C96.6524 23.992 96.7644 24.2853 96.7644 24.68C96.7644 25.064 96.6524 25.3573 96.4284 25.56C96.2044 25.752 95.8631 25.848 95.4044 25.848ZM96.4924 27V35H94.3004V27H96.4924ZM102.528 35.16C101.685 35.16 100.949 34.9947 100.32 34.664C99.7014 34.3333 99.2214 33.8587 98.8801 33.24C98.5387 32.6213 98.3681 31.8747 98.3681 31C98.3681 30.1253 98.5387 29.3787 98.8801 28.76C99.2214 28.1413 99.6961 27.6667 100.304 27.336C100.923 27.0053 101.627 26.84 102.416 26.84C103.227 26.84 103.915 27.0053 104.48 27.336C105.045 27.656 105.477 28.0987 105.776 28.664C106.075 29.2187 106.224 29.8533 106.224 30.568C106.224 30.7813 106.219 30.984 106.208 31.176C106.197 31.368 106.181 31.5387 106.16 31.688H99.7761V30.168H105.2L104.144 30.552C104.144 29.88 103.989 29.3627 103.68 29C103.381 28.6373 102.955 28.456 102.4 28.456C101.995 28.456 101.643 28.552 101.344 28.744C101.056 28.936 100.837 29.224 100.688 29.608C100.539 29.9813 100.464 30.456 100.464 31.032C100.464 31.5973 100.544 32.0667 100.704 32.44C100.875 32.8027 101.109 33.0747 101.408 33.256C101.717 33.4373 102.085 33.528 102.512 33.528C102.981 33.528 103.36 33.4373 103.648 33.256C103.936 33.0747 104.16 32.824 104.32 32.504L106.064 33.176C105.893 33.592 105.632 33.9493 105.28 34.248C104.939 34.5467 104.528 34.776 104.048 34.936C103.579 35.0853 103.072 35.16 102.528 35.16ZM118.183 27H120.519L117.959 35H115.431L113.687 29.56L112.007 35H109.479L106.919 27H109.255L110.855 33.128L112.631 27H114.807L116.599 33.128L118.183 27ZM131.305 24.44C132.5 24.44 133.439 24.728 134.121 25.304C134.804 25.88 135.145 26.6533 135.145 27.624C135.145 28.6587 134.804 29.4533 134.121 30.008C133.439 30.552 132.505 30.824 131.321 30.824L131.097 30.952H128.825V35H126.649V24.44H131.305ZM131.049 29.272C131.668 29.272 132.127 29.1493 132.425 28.904C132.735 28.648 132.889 28.2587 132.889 27.736C132.889 27.2133 132.735 26.8293 132.425 26.584C132.127 26.328 131.668 26.2 131.049 26.2H128.825V29.272H131.049ZM132.345 29.736L135.769 35H133.289L130.457 30.376L132.345 29.736ZM141.86 29.896C141.86 29.4373 141.727 29.08 141.46 28.824C141.204 28.568 140.863 28.44 140.436 28.44C140.042 28.44 139.695 28.5413 139.396 28.744C139.098 28.9467 138.879 29.2827 138.74 29.752L136.868 29.176C137.05 28.472 137.444 27.9067 138.052 27.48C138.671 27.0533 139.498 26.84 140.532 26.84C141.236 26.84 141.85 26.952 142.372 27.176C142.895 27.3893 143.3 27.7147 143.588 28.152C143.887 28.5893 144.036 29.1387 144.036 29.8V33.048C144.036 33.4533 144.228 33.656 144.612 33.656C144.794 33.656 144.964 33.6293 145.124 33.576L144.996 34.936C144.719 35.0747 144.372 35.144 143.956 35.144C143.583 35.144 143.247 35.08 142.948 34.952C142.65 34.824 142.415 34.632 142.244 34.376C142.074 34.1093 141.988 33.7787 141.988 33.384V33.32L142.372 33.256C142.308 33.6613 142.132 34.008 141.844 34.296C141.556 34.5733 141.204 34.7867 140.788 34.936C140.383 35.0853 139.962 35.16 139.524 35.16C138.98 35.16 138.511 35.08 138.116 34.92C137.722 34.7493 137.418 34.504 137.204 34.184C136.991 33.864 136.884 33.4693 136.884 33C136.884 32.4027 137.076 31.9173 137.46 31.544C137.844 31.16 138.394 30.8987 139.108 30.76L142.116 30.152L142.1 31.512L140.18 31.896C139.818 31.9707 139.54 32.072 139.348 32.2C139.167 32.3173 139.076 32.5147 139.076 32.792C139.076 33.0587 139.172 33.2613 139.364 33.4C139.567 33.5387 139.807 33.608 140.084 33.608C140.308 33.608 140.527 33.5813 140.74 33.528C140.954 33.4747 141.146 33.3893 141.316 33.272C141.487 33.1547 141.62 32.9947 141.716 32.792C141.812 32.5893 141.86 32.344 141.86 32.056V29.896ZM146.488 35V27H148.456L148.584 29.4L148.312 29.144C148.44 28.6213 148.643 28.1893 148.92 27.848C149.197 27.5067 149.533 27.256 149.928 27.096C150.333 26.9253 150.776 26.84 151.256 26.84C151.811 26.84 152.301 26.9467 152.728 27.16C153.165 27.3733 153.507 27.6987 153.752 28.136C154.008 28.5627 154.136 29.1013 154.136 29.752V35H151.944V30.376C151.944 29.6933 151.811 29.224 151.544 28.968C151.277 28.7013 150.931 28.568 150.504 28.568C150.205 28.568 149.912 28.6427 149.624 28.792C149.347 28.9307 149.117 29.16 148.936 29.48C148.765 29.8 148.68 30.2267 148.68 30.76V35H146.488ZM164.538 27L160.842 30.856L160.41 31.064L158.01 33.64L157.978 31.304L162.042 27H164.538ZM158.586 23.496V35H156.394V23.496H158.586ZM161.146 29.544L164.73 35H162.25L159.642 30.824L161.146 29.544ZM167.123 25.848C166.665 25.848 166.323 25.752 166.099 25.56C165.875 25.3573 165.763 25.064 165.763 24.68C165.763 24.2853 165.875 23.992 166.099 23.8C166.323 23.5973 166.665 23.496 167.123 23.496C167.582 23.496 167.923 23.5973 168.147 23.8C168.371 23.992 168.483 24.2853 168.483 24.68C168.483 25.064 168.371 25.3573 168.147 25.56C167.923 25.752 167.582 25.848 167.123 25.848ZM168.211 27V35H166.019V27H168.211ZM170.535 35V27H172.503L172.631 29.4L172.359 29.144C172.487 28.6213 172.689 28.1893 172.967 27.848C173.244 27.5067 173.58 27.256 173.975 27.096C174.38 26.9253 174.823 26.84 175.303 26.84C175.857 26.84 176.348 26.9467 176.775 27.16C177.212 27.3733 177.553 27.6987 177.799 28.136C178.055 28.5627 178.183 29.1013 178.183 29.752V35H175.991V30.376C175.991 29.6933 175.857 29.224 175.591 28.968C175.324 28.7013 174.977 28.568 174.551 28.568C174.252 28.568 173.959 28.6427 173.671 28.792C173.393 28.9307 173.164 29.16 172.983 29.48C172.812 29.8 172.727 30.2267 172.727 30.76V35H170.535ZM187.817 25.096L188.073 26.664C188.03 26.664 187.982 26.664 187.929 26.664C187.886 26.6533 187.838 26.648 187.785 26.648C187.294 26.648 186.926 26.76 186.681 26.984C186.436 27.1973 186.313 27.496 186.313 27.88L185.417 27.512C185.417 27.0853 185.502 26.6907 185.673 26.328C185.844 25.9547 186.094 25.656 186.425 25.432C186.766 25.208 187.172 25.096 187.641 25.096C187.662 25.096 187.689 25.096 187.721 25.096C187.753 25.096 187.785 25.096 187.817 25.096ZM185.193 33.496C186.057 33.496 186.724 33.6827 187.193 34.056C187.662 34.4293 187.897 34.952 187.897 35.624C187.897 36.232 187.721 36.744 187.369 37.16C187.017 37.5867 186.521 37.9067 185.881 38.12C185.252 38.3333 184.521 38.44 183.689 38.44C182.313 38.44 181.305 38.248 180.665 37.864C180.036 37.48 179.721 36.9787 179.721 36.36C179.721 35.9227 179.886 35.5547 180.217 35.256C180.558 34.9573 181.118 34.792 181.897 34.76L181.817 35.016C181.262 34.92 180.836 34.7387 180.537 34.472C180.249 34.1947 180.105 33.816 180.105 33.336C180.105 32.8453 180.292 32.4453 180.665 32.136C181.049 31.816 181.566 31.6293 182.217 31.576L183.177 32.024H182.953C182.494 32.056 182.169 32.152 181.977 32.312C181.796 32.4613 181.705 32.632 181.705 32.824C181.705 33.048 181.79 33.2187 181.961 33.336C182.142 33.4427 182.398 33.496 182.729 33.496H185.193ZM183.705 36.936C184.26 36.936 184.713 36.888 185.065 36.792C185.428 36.696 185.694 36.5733 185.865 36.424C186.046 36.2747 186.137 36.1093 186.137 35.928C186.137 35.7253 186.057 35.56 185.897 35.432C185.737 35.3147 185.449 35.256 185.033 35.256H182.329C182.073 35.256 181.86 35.32 181.689 35.448C181.529 35.576 181.449 35.752 181.449 35.976C181.449 36.2747 181.646 36.5093 182.041 36.68C182.446 36.8507 183.001 36.936 183.705 36.936ZM183.721 26.84C184.468 26.84 185.113 26.952 185.657 27.176C186.212 27.3893 186.633 27.6987 186.921 28.104C187.22 28.5093 187.369 28.9947 187.369 29.56C187.369 30.1147 187.22 30.5947 186.921 31C186.633 31.4053 186.212 31.72 185.657 31.944C185.113 32.1573 184.468 32.264 183.721 32.264C182.537 32.264 181.63 32.024 181.001 31.544C180.382 31.0533 180.073 30.392 180.073 29.56C180.073 28.9947 180.217 28.5093 180.505 28.104C180.804 27.6987 181.225 27.3893 181.769 27.176C182.313 26.952 182.964 26.84 183.721 26.84ZM183.721 28.216C183.294 28.216 182.942 28.3333 182.665 28.568C182.388 28.8027 182.249 29.128 182.249 29.544C182.249 29.96 182.388 30.2907 182.665 30.536C182.942 30.7707 183.294 30.888 183.721 30.888C184.148 30.888 184.494 30.7707 184.761 30.536C185.038 30.2907 185.177 29.96 185.177 29.544C185.177 29.128 185.038 28.8027 184.761 28.568C184.494 28.3333 184.148 28.216 183.721 28.216ZM192.422 35.16C191.612 35.16 190.87 35.016 190.198 34.728C189.537 34.44 188.998 34.0347 188.582 33.512L189.846 32.232C190.102 32.616 190.444 32.9307 190.87 33.176C191.297 33.4213 191.804 33.544 192.39 33.544C192.806 33.544 193.137 33.4853 193.382 33.368C193.638 33.24 193.766 33.0427 193.766 32.776C193.766 32.6053 193.708 32.4613 193.59 32.344C193.473 32.216 193.238 32.1147 192.886 32.04L191.478 31.752C190.55 31.56 189.889 31.272 189.494 30.888C189.11 30.4933 188.918 29.9867 188.918 29.368C188.918 28.9307 189.046 28.52 189.302 28.136C189.569 27.752 189.964 27.4427 190.486 27.208C191.009 26.9627 191.66 26.84 192.438 26.84C193.238 26.84 193.932 26.968 194.518 27.224C195.116 27.4693 195.585 27.8373 195.926 28.328L194.614 29.608C194.38 29.2347 194.07 28.952 193.686 28.76C193.313 28.5573 192.918 28.456 192.502 28.456C192.204 28.456 191.948 28.488 191.734 28.552C191.521 28.616 191.361 28.7067 191.254 28.824C191.148 28.9307 191.094 29.0693 191.094 29.24C191.094 29.4107 191.169 29.56 191.318 29.688C191.468 29.8053 191.74 29.9067 192.134 29.992L193.766 30.328C194.556 30.488 195.121 30.76 195.462 31.144C195.804 31.5173 195.974 31.9707 195.974 32.504C195.974 33.016 195.836 33.4747 195.558 33.88C195.292 34.2747 194.892 34.5893 194.358 34.824C193.836 35.048 193.19 35.16 192.422 35.16Z" fill="white"/>
</svg>
