<svg width="152" height="60" viewBox="0 0 152 60" fill="none" xmlns="http://www.w3.org/2000/svg">
<rect width="152" height="60" rx="20" fill="#A259FF"/>
<path fill-rule="evenodd" clip-rule="evenodd" d="M40 23.125C37.5838 23.125 35.625 25.0838 35.625 27.5C35.625 29.9162 37.5838 31.875 40 31.875C42.4162 31.875 44.375 29.9162 44.375 27.5C44.375 25.0838 42.4162 23.125 40 23.125ZM34.375 27.5C34.375 24.3934 36.8934 21.875 40 21.875C43.1066 21.875 45.625 24.3934 45.625 27.5C45.625 30.6066 43.1066 33.125 40 33.125C36.8934 33.125 34.375 30.6066 34.375 27.5Z" fill="white"/>
<path fill-rule="evenodd" clip-rule="evenodd" d="M40.0001 33.124C38.5737 33.124 37.1725 33.4995 35.9373 34.2128C34.702 34.926 33.6763 35.9518 32.9633 37.1872C32.7907 37.4861 32.4085 37.5886 32.1095 37.416C31.8106 37.2435 31.7081 36.8612 31.8807 36.5623C32.7035 35.1369 33.887 33.9532 35.3122 33.1303C36.7375 32.3073 38.3543 31.874 40.0001 31.874C41.6459 31.874 43.2627 32.3073 44.688 33.1303C46.1132 33.9532 47.2968 35.1369 48.1195 36.5623C48.2921 36.8612 48.1896 37.2435 47.8907 37.416C47.5917 37.5886 47.2095 37.4861 47.0369 37.1872C46.3239 35.9518 45.2982 34.926 44.0629 34.2128C42.8277 33.4995 41.4265 33.124 40.0001 33.124Z" fill="white"/>
<path d="M67.3883 24.28C68.3483 24.28 69.1909 24.4453 69.9163 24.776C70.6416 25.1067 71.2603 25.5973 71.7723 26.248L70.5403 27.672C70.1029 27.1173 69.6229 26.712 69.1003 26.456C68.5883 26.1893 67.9909 26.056 67.3083 26.056C66.8603 26.056 66.4869 26.1147 66.1883 26.232C65.9003 26.3493 65.6869 26.504 65.5483 26.696C65.4203 26.888 65.3563 27.1013 65.3563 27.336C65.3563 27.624 65.4683 27.8693 65.6923 28.072C65.9163 28.264 66.3003 28.424 66.8443 28.552L68.8123 29C69.8576 29.2347 70.6043 29.5867 71.0523 30.056C71.5109 30.5147 71.7403 31.112 71.7403 31.848C71.7403 32.5413 71.5589 33.1387 71.1962 33.64C70.8336 34.1307 70.3269 34.5093 69.6763 34.776C69.0256 35.032 68.2789 35.16 67.4363 35.16C66.7003 35.16 66.0229 35.0747 65.4043 34.904C64.7963 34.7227 64.2523 34.4773 63.7723 34.168C63.2923 33.8587 62.8923 33.5013 62.5723 33.096L63.8203 31.608C64.0656 31.9493 64.3696 32.2533 64.7323 32.52C65.0949 32.7867 65.5056 33 65.9643 33.16C66.4336 33.3093 66.9243 33.384 67.4363 33.384C67.8736 33.384 68.2416 33.336 68.5403 33.24C68.8496 33.1333 69.0789 32.9893 69.2283 32.808C69.3883 32.616 69.4683 32.3867 69.4683 32.12C69.4683 31.8427 69.3723 31.608 69.1803 31.416C68.9989 31.2133 68.6576 31.0587 68.1563 30.952L66.0123 30.472C65.3936 30.3227 64.8603 30.1307 64.4123 29.896C63.9749 29.6507 63.6389 29.3413 63.4043 28.968C63.1803 28.584 63.0683 28.1307 63.0683 27.608C63.0683 26.9787 63.2389 26.4133 63.5803 25.912C63.9216 25.4107 64.4123 25.016 65.0523 24.728C65.7029 24.4293 66.4816 24.28 67.3883 24.28ZM74.6623 25.848C74.2036 25.848 73.8623 25.752 73.6383 25.56C73.4143 25.3573 73.3023 25.064 73.3023 24.68C73.3023 24.2853 73.4143 23.992 73.6383 23.8C73.8623 23.5973 74.2036 23.496 74.6623 23.496C75.1209 23.496 75.4623 23.5973 75.6863 23.8C75.9103 23.992 76.0223 24.2853 76.0223 24.68C76.0223 25.064 75.9103 25.3573 75.6863 25.56C75.4623 25.752 75.1209 25.848 74.6623 25.848ZM75.7503 27V35H73.5583V27H75.7503ZM85.4499 25.096L85.7059 26.664C85.6632 26.664 85.6152 26.664 85.5619 26.664C85.5192 26.6533 85.4712 26.648 85.4179 26.648C84.9272 26.648 84.5592 26.76 84.3139 26.984C84.0685 27.1973 83.9459 27.496 83.9459 27.88L83.0499 27.512C83.0499 27.0853 83.1352 26.6907 83.3059 26.328C83.4765 25.9547 83.7272 25.656 84.0579 25.432C84.3992 25.208 84.8045 25.096 85.2739 25.096C85.2952 25.096 85.3219 25.096 85.3539 25.096C85.3859 25.096 85.4179 25.096 85.4499 25.096ZM82.8259 33.496C83.6899 33.496 84.3565 33.6827 84.8259 34.056C85.2952 34.4293 85.5299 34.952 85.5299 35.624C85.5299 36.232 85.3539 36.744 85.0019 37.16C84.6499 37.5867 84.1539 37.9067 83.5139 38.12C82.8845 38.3333 82.1539 38.44 81.3219 38.44C79.9459 38.44 78.9379 38.248 78.2979 37.864C77.6685 37.48 77.3539 36.9787 77.3539 36.36C77.3539 35.9227 77.5192 35.5547 77.8499 35.256C78.1912 34.9573 78.7512 34.792 79.5299 34.76L79.4499 35.016C78.8952 34.92 78.4685 34.7387 78.1699 34.472C77.8819 34.1947 77.7379 33.816 77.7379 33.336C77.7379 32.8453 77.9245 32.4453 78.2979 32.136C78.6819 31.816 79.1992 31.6293 79.8499 31.576L80.8099 32.024H80.5859C80.1272 32.056 79.8019 32.152 79.6099 32.312C79.4285 32.4613 79.3379 32.632 79.3379 32.824C79.3379 33.048 79.4232 33.2187 79.5939 33.336C79.7752 33.4427 80.0312 33.496 80.3619 33.496H82.8259ZM81.3379 36.936C81.8925 36.936 82.3459 36.888 82.6979 36.792C83.0605 36.696 83.3272 36.5733 83.4979 36.424C83.6792 36.2747 83.7699 36.1093 83.7699 35.928C83.7699 35.7253 83.6899 35.56 83.5299 35.432C83.3699 35.3147 83.0819 35.256 82.6659 35.256H79.9619C79.7059 35.256 79.4925 35.32 79.3219 35.448C79.1619 35.576 79.0819 35.752 79.0819 35.976C79.0819 36.2747 79.2792 36.5093 79.6739 36.68C80.0792 36.8507 80.6339 36.936 81.3379 36.936ZM81.3539 26.84C82.1005 26.84 82.7459 26.952 83.2899 27.176C83.8445 27.3893 84.2659 27.6987 84.5539 28.104C84.8525 28.5093 85.0019 28.9947 85.0019 29.56C85.0019 30.1147 84.8525 30.5947 84.5539 31C84.2659 31.4053 83.8445 31.72 83.2899 31.944C82.7459 32.1573 82.1005 32.264 81.3539 32.264C80.1699 32.264 79.2632 32.024 78.6339 31.544C78.0152 31.0533 77.7059 30.392 77.7059 29.56C77.7059 28.9947 77.8499 28.5093 78.1379 28.104C78.4365 27.6987 78.8579 27.3893 79.4019 27.176C79.9459 26.952 80.5965 26.84 81.3539 26.84ZM81.3539 28.216C80.9272 28.216 80.5752 28.3333 80.2979 28.568C80.0205 28.8027 79.8819 29.128 79.8819 29.544C79.8819 29.96 80.0205 30.2907 80.2979 30.536C80.5752 30.7707 80.9272 30.888 81.3539 30.888C81.7805 30.888 82.1272 30.7707 82.3939 30.536C82.6712 30.2907 82.8099 29.96 82.8099 29.544C82.8099 29.128 82.6712 28.8027 82.3939 28.568C82.1272 28.3333 81.7805 28.216 81.3539 28.216ZM86.8551 35V27H88.8231L88.9511 29.4L88.6791 29.144C88.8071 28.6213 89.0098 28.1893 89.2871 27.848C89.5645 27.5067 89.9005 27.256 90.2951 27.096C90.7005 26.9253 91.1431 26.84 91.6231 26.84C92.1778 26.84 92.6685 26.9467 93.0951 27.16C93.5325 27.3733 93.8738 27.6987 94.1191 28.136C94.3751 28.5627 94.5031 29.1013 94.5031 29.752V35H92.3111V30.376C92.3111 29.6933 92.1778 29.224 91.9111 28.968C91.6445 28.7013 91.2978 28.568 90.8711 28.568C90.5725 28.568 90.2791 28.6427 89.9911 28.792C89.7138 28.9307 89.4845 29.16 89.3031 29.48C89.1325 29.8 89.0471 30.2267 89.0471 30.76V35H86.8551ZM110.692 24.44V30.84C110.692 32.28 110.308 33.3627 109.54 34.088C108.772 34.8027 107.652 35.16 106.18 35.16C104.708 35.16 103.588 34.8027 102.82 34.088C102.052 33.3627 101.668 32.28 101.668 30.84V24.44H103.876V30.744C103.876 31.6293 104.063 32.2853 104.436 32.712C104.82 33.1387 105.401 33.352 106.18 33.352C106.959 33.352 107.535 33.1387 107.908 32.712C108.281 32.2853 108.468 31.6293 108.468 30.744V24.44H110.692ZM112.965 38.36V27H114.933L115.077 29.544L114.805 29.256C114.901 28.7867 115.077 28.3707 115.333 28.008C115.599 27.6453 115.935 27.3627 116.341 27.16C116.746 26.9467 117.199 26.84 117.701 26.84C118.351 26.84 118.933 27.0053 119.445 27.336C119.957 27.6667 120.357 28.1413 120.645 28.76C120.943 29.368 121.093 30.1093 121.093 30.984C121.093 31.8587 120.943 32.6107 120.645 33.24C120.346 33.8587 119.935 34.3333 119.413 34.664C118.901 34.9947 118.314 35.16 117.653 35.16C116.949 35.16 116.362 34.9627 115.893 34.568C115.434 34.1733 115.119 33.6773 114.949 33.08L115.157 32.744V38.36H112.965ZM117.013 33.48C117.599 33.48 118.058 33.272 118.389 32.856C118.73 32.4293 118.901 31.8107 118.901 31C118.901 30.1893 118.735 29.576 118.405 29.16C118.085 28.7333 117.631 28.52 117.045 28.52C116.671 28.52 116.341 28.6213 116.053 28.824C115.775 29.016 115.557 29.2987 115.397 29.672C115.237 30.0347 115.157 30.4773 115.157 31C115.157 31.512 115.231 31.9547 115.381 32.328C115.53 32.7013 115.743 32.9893 116.021 33.192C116.309 33.384 116.639 33.48 117.013 33.48Z" fill="white"/>
</svg>
