<svg width="211" height="60" viewBox="0 0 211 60" fill="none" xmlns="http://www.w3.org/2000/svg">
<rect width="211" height="60" rx="20" fill="#A259FF"/>
<path fill-rule="evenodd" clip-rule="evenodd" d="M51.875 24.375C51.875 24.0298 52.1548 23.75 52.5 23.75H67.5C67.8452 23.75 68.125 24.0298 68.125 24.375V35C68.125 35.3315 67.9933 35.6495 67.7589 35.8839C67.5245 36.1183 67.2065 36.25 66.875 36.25H53.125C52.7935 36.25 52.4755 36.1183 52.2411 35.8839C52.0067 35.6495 51.875 35.3315 51.875 35V24.375ZM53.125 25V35H66.875V25H53.125Z" fill="white"/>
<path fill-rule="evenodd" clip-rule="evenodd" d="M52.0393 23.9527C52.2725 23.6982 52.6679 23.681 52.9223 23.9143L60 30.4021L67.0777 23.9143C67.3321 23.681 67.7275 23.6982 67.9607 23.9527C68.194 24.2071 68.1768 24.6025 67.9223 24.8357L60.4223 31.7107C60.1834 31.9298 59.8166 31.9298 59.5777 31.7107L52.0777 24.8357C51.8232 24.6025 51.806 24.2071 52.0393 23.9527Z" fill="white"/>
<path d="M87.6148 24.28C88.5748 24.28 89.4175 24.4453 90.1428 24.776C90.8681 25.1067 91.4868 25.5973 91.9988 26.248L90.7668 27.672C90.3295 27.1173 89.8495 26.712 89.3268 26.456C88.8148 26.1893 88.2175 26.056 87.5348 26.056C87.0868 26.056 86.7135 26.1147 86.4148 26.232C86.1268 26.3493 85.9135 26.504 85.7748 26.696C85.6468 26.888 85.5828 27.1013 85.5828 27.336C85.5828 27.624 85.6948 27.8693 85.9188 28.072C86.1428 28.264 86.5268 28.424 87.0708 28.552L89.0388 29C90.0841 29.2347 90.8308 29.5867 91.2788 30.056C91.7375 30.5147 91.9668 31.112 91.9668 31.848C91.9668 32.5413 91.7855 33.1387 91.4228 33.64C91.0601 34.1307 90.5535 34.5093 89.9028 34.776C89.2521 35.032 88.5055 35.16 87.6628 35.16C86.9268 35.16 86.2495 35.0747 85.6308 34.904C85.0228 34.7227 84.4788 34.4773 83.9988 34.168C83.5188 33.8587 83.1188 33.5013 82.7988 33.096L84.0468 31.608C84.2921 31.9493 84.5961 32.2533 84.9588 32.52C85.3215 32.7867 85.7321 33 86.1908 33.16C86.6601 33.3093 87.1508 33.384 87.6628 33.384C88.1001 33.384 88.4681 33.336 88.7668 33.24C89.0761 33.1333 89.3055 32.9893 89.4548 32.808C89.6148 32.616 89.6948 32.3867 89.6948 32.12C89.6948 31.8427 89.5988 31.608 89.4068 31.416C89.2255 31.2133 88.8841 31.0587 88.3828 30.952L86.2388 30.472C85.6201 30.3227 85.0868 30.1307 84.6388 29.896C84.2015 29.6507 83.8655 29.3413 83.6308 28.968C83.4068 28.584 83.2948 28.1307 83.2948 27.608C83.2948 26.9787 83.4655 26.4133 83.8068 25.912C84.1481 25.4107 84.6388 25.016 85.2788 24.728C85.9295 24.4293 86.7081 24.28 87.6148 24.28ZM96.5688 35.16C96.0355 35.16 95.5555 35.064 95.1288 34.872C94.7021 34.68 94.3608 34.376 94.1048 33.96C93.8595 33.5333 93.7368 32.984 93.7368 32.312V27H95.9288V31.784C95.9288 32.4027 96.0568 32.8347 96.3128 33.08C96.5688 33.3147 96.9368 33.432 97.4168 33.432C97.6408 33.432 97.8595 33.3947 98.0728 33.32C98.2861 33.2347 98.4728 33.1067 98.6328 32.936C98.8035 32.7653 98.9368 32.5467 99.0328 32.28C99.1288 32.0027 99.1768 31.6773 99.1768 31.304V27H101.369V35H99.4168L99.3368 33.608C99.0701 34.1413 98.7021 34.536 98.2328 34.792C97.7741 35.0373 97.2195 35.16 96.5688 35.16ZM108.379 35.16C107.889 35.16 107.441 35.0587 107.035 34.856C106.641 34.6427 106.31 34.3547 106.043 33.992C105.787 33.6187 105.611 33.2027 105.515 32.744L105.739 32.456L105.611 35H103.675V23.496H105.867V29.256L105.659 28.92C105.83 28.3227 106.155 27.8267 106.635 27.432C107.115 27.0373 107.718 26.84 108.443 26.84C109.073 26.84 109.643 27.0053 110.155 27.336C110.667 27.6667 111.067 28.1413 111.355 28.76C111.654 29.3787 111.803 30.1307 111.803 31.016C111.803 31.88 111.654 32.6213 111.355 33.24C111.067 33.8587 110.662 34.3333 110.139 34.664C109.627 34.9947 109.041 35.16 108.379 35.16ZM107.723 33.48C108.31 33.48 108.769 33.272 109.099 32.856C109.441 32.4293 109.611 31.8107 109.611 31C109.611 30.1893 109.446 29.576 109.115 29.16C108.785 28.7333 108.326 28.52 107.739 28.52C107.355 28.52 107.025 28.6213 106.747 28.824C106.47 29.0267 106.251 29.3147 106.091 29.688C105.942 30.0613 105.867 30.504 105.867 31.016C105.867 31.5387 105.942 31.9867 106.091 32.36C106.251 32.7227 106.47 33 106.747 33.192C107.035 33.384 107.361 33.48 107.723 33.48ZM116.907 35.16C116.096 35.16 115.355 35.016 114.683 34.728C114.021 34.44 113.483 34.0347 113.067 33.512L114.331 32.232C114.587 32.616 114.928 32.9307 115.355 33.176C115.781 33.4213 116.288 33.544 116.875 33.544C117.291 33.544 117.621 33.4853 117.867 33.368C118.123 33.24 118.251 33.0427 118.251 32.776C118.251 32.6053 118.192 32.4613 118.075 32.344C117.957 32.216 117.723 32.1147 117.371 32.04L115.963 31.752C115.035 31.56 114.373 31.272 113.979 30.888C113.595 30.4933 113.403 29.9867 113.403 29.368C113.403 28.9307 113.531 28.52 113.787 28.136C114.053 27.752 114.448 27.4427 114.971 27.208C115.493 26.9627 116.144 26.84 116.923 26.84C117.723 26.84 118.416 26.968 119.003 27.224C119.6 27.4693 120.069 27.8373 120.411 28.328L119.099 29.608C118.864 29.2347 118.555 28.952 118.171 28.76C117.797 28.5573 117.403 28.456 116.987 28.456C116.688 28.456 116.432 28.488 116.219 28.552C116.005 28.616 115.845 28.7067 115.739 28.824C115.632 28.9307 115.579 29.0693 115.579 29.24C115.579 29.4107 115.653 29.56 115.803 29.688C115.952 29.8053 116.224 29.9067 116.619 29.992L118.251 30.328C119.04 30.488 119.605 30.76 119.947 31.144C120.288 31.5173 120.459 31.9707 120.459 32.504C120.459 33.016 120.32 33.4747 120.043 33.88C119.776 34.2747 119.376 34.5893 118.843 34.824C118.32 35.048 117.675 35.16 116.907 35.16ZM125.807 26.84C126.522 26.84 127.125 26.9467 127.615 27.16C128.117 27.3627 128.517 27.6453 128.815 28.008C129.125 28.36 129.343 28.7547 129.471 29.192L127.423 29.928C127.317 29.448 127.135 29.0853 126.879 28.84C126.623 28.5947 126.277 28.472 125.839 28.472C125.434 28.472 125.087 28.568 124.799 28.76C124.511 28.9413 124.293 29.224 124.143 29.608C123.994 29.9813 123.919 30.4507 123.919 31.016C123.919 31.5813 123.994 32.0507 124.143 32.424C124.303 32.7973 124.527 33.0747 124.815 33.256C125.114 33.4373 125.461 33.528 125.855 33.528C126.175 33.528 126.447 33.4747 126.671 33.368C126.895 33.2507 127.077 33.0853 127.215 32.872C127.365 32.6587 127.466 32.4027 127.519 32.104L129.503 32.744C129.386 33.224 129.167 33.6453 128.847 34.008C128.527 34.3707 128.117 34.6533 127.615 34.856C127.114 35.0587 126.533 35.16 125.871 35.16C125.05 35.16 124.325 34.9947 123.695 34.664C123.066 34.3333 122.581 33.8587 122.239 33.24C121.898 32.6213 121.727 31.8747 121.727 31C121.727 30.1253 121.898 29.3787 122.239 28.76C122.581 28.1413 123.061 27.6667 123.679 27.336C124.298 27.0053 125.007 26.84 125.807 26.84ZM131.207 35V27H133.111L133.255 28.568C133.468 28.0133 133.777 27.5867 134.183 27.288C134.599 26.9893 135.116 26.84 135.735 26.84C135.916 26.84 136.081 26.856 136.231 26.888C136.38 26.92 136.503 26.9627 136.599 27.016L136.343 28.856C136.236 28.8133 136.103 28.7813 135.943 28.76C135.793 28.7387 135.596 28.728 135.351 28.728C135.031 28.728 134.721 28.808 134.423 28.968C134.124 29.1173 133.879 29.352 133.687 29.672C133.495 29.9813 133.399 30.376 133.399 30.856V35H131.207ZM139.061 25.848C138.602 25.848 138.261 25.752 138.037 25.56C137.813 25.3573 137.701 25.064 137.701 24.68C137.701 24.2853 137.813 23.992 138.037 23.8C138.261 23.5973 138.602 23.496 139.061 23.496C139.519 23.496 139.861 23.5973 140.085 23.8C140.309 23.992 140.421 24.2853 140.421 24.68C140.421 25.064 140.309 25.3573 140.085 25.56C139.861 25.752 139.519 25.848 139.061 25.848ZM140.149 27V35H137.957V27H140.149ZM147.176 35.16C146.686 35.16 146.238 35.0587 145.832 34.856C145.438 34.6427 145.107 34.3547 144.84 33.992C144.584 33.6187 144.408 33.2027 144.312 32.744L144.536 32.456L144.408 35H142.472V23.496H144.664V29.256L144.456 28.92C144.627 28.3227 144.952 27.8267 145.432 27.432C145.912 27.0373 146.515 26.84 147.24 26.84C147.87 26.84 148.44 27.0053 148.952 27.336C149.464 27.6667 149.864 28.1413 150.152 28.76C150.451 29.3787 150.6 30.1307 150.6 31.016C150.6 31.88 150.451 32.6213 150.152 33.24C149.864 33.8587 149.459 34.3333 148.936 34.664C148.424 34.9947 147.838 35.16 147.176 35.16ZM146.52 33.48C147.107 33.48 147.566 33.272 147.896 32.856C148.238 32.4293 148.408 31.8107 148.408 31C148.408 30.1893 148.243 29.576 147.912 29.16C147.582 28.7333 147.123 28.52 146.536 28.52C146.152 28.52 145.822 28.6213 145.544 28.824C145.267 29.0267 145.048 29.3147 144.888 29.688C144.739 30.0613 144.664 30.504 144.664 31.016C144.664 31.5387 144.739 31.9867 144.888 32.36C145.048 32.7227 145.267 33 145.544 33.192C145.832 33.384 146.158 33.48 146.52 33.48ZM156.216 35.16C155.373 35.16 154.637 34.9947 154.008 34.664C153.389 34.3333 152.909 33.8587 152.568 33.24C152.226 32.6213 152.056 31.8747 152.056 31C152.056 30.1253 152.226 29.3787 152.568 28.76C152.909 28.1413 153.384 27.6667 153.992 27.336C154.61 27.0053 155.314 26.84 156.104 26.84C156.914 26.84 157.602 27.0053 158.168 27.336C158.733 27.656 159.165 28.0987 159.464 28.664C159.762 29.2187 159.912 29.8533 159.912 30.568C159.912 30.7813 159.906 30.984 159.896 31.176C159.885 31.368 159.869 31.5387 159.848 31.688H153.464V30.168H158.888L157.832 30.552C157.832 29.88 157.677 29.3627 157.368 29C157.069 28.6373 156.642 28.456 156.088 28.456C155.682 28.456 155.33 28.552 155.032 28.744C154.744 28.936 154.525 29.224 154.376 29.608C154.226 29.9813 154.152 30.456 154.152 31.032C154.152 31.5973 154.232 32.0667 154.392 32.44C154.562 32.8027 154.797 33.0747 155.096 33.256C155.405 33.4373 155.773 33.528 156.2 33.528C156.669 33.528 157.048 33.4373 157.336 33.256C157.624 33.0747 157.848 32.824 158.008 32.504L159.752 33.176C159.581 33.592 159.32 33.9493 158.968 34.248C158.626 34.5467 158.216 34.776 157.736 34.936C157.266 35.0853 156.76 35.16 156.216 35.16Z" fill="white"/>
</svg>
