<svg width="300" height="46" viewBox="0 0 300 46" fill="none" xmlns="http://www.w3.org/2000/svg">
<rect width="300" height="46" rx="20" fill="#A259FF"/>
<path fill-rule="evenodd" clip-rule="evenodd" d="M96.375 17.375C96.375 17.0298 96.6548 16.75 97 16.75H112C112.345 16.75 112.625 17.0298 112.625 17.375V28C112.625 28.3315 112.493 28.6495 112.259 28.8839C112.024 29.1183 111.707 29.25 111.375 29.25H97.625C97.2935 29.25 96.9755 29.1183 96.7411 28.8839C96.5067 28.6495 96.375 28.3315 96.375 28V17.375ZM97.625 18V28H111.375V18H97.625Z" fill="white"/>
<path fill-rule="evenodd" clip-rule="evenodd" d="M96.5393 16.9527C96.7725 16.6982 97.1679 16.681 97.4223 16.9143L104.5 23.4021L111.578 16.9143C111.832 16.681 112.227 16.6982 112.461 16.9527C112.694 17.2071 112.677 17.6025 112.422 17.8357L104.922 24.7107C104.683 24.9298 104.317 24.9298 104.078 24.7107L96.5777 17.8357C96.3232 17.6025 96.306 17.2071 96.5393 16.9527Z" fill="white"/>
<path d="M132.115 17.28C133.075 17.28 133.917 17.4453 134.643 17.776C135.368 18.1067 135.987 18.5973 136.499 19.248L135.267 20.672C134.829 20.1173 134.349 19.712 133.827 19.456C133.315 19.1893 132.717 19.056 132.035 19.056C131.587 19.056 131.213 19.1147 130.915 19.232C130.627 19.3493 130.413 19.504 130.275 19.696C130.147 19.888 130.083 20.1013 130.083 20.336C130.083 20.624 130.195 20.8693 130.419 21.072C130.643 21.264 131.027 21.424 131.571 21.552L133.539 22C134.584 22.2347 135.331 22.5867 135.779 23.056C136.237 23.5147 136.467 24.112 136.467 24.848C136.467 25.5413 136.285 26.1387 135.923 26.64C135.56 27.1307 135.053 27.5093 134.403 27.776C133.752 28.032 133.005 28.16 132.163 28.16C131.427 28.16 130.749 28.0747 130.131 27.904C129.523 27.7227 128.979 27.4773 128.499 27.168C128.019 26.8587 127.619 26.5013 127.299 26.096L128.547 24.608C128.792 24.9493 129.096 25.2533 129.459 25.52C129.821 25.7867 130.232 26 130.691 26.16C131.16 26.3093 131.651 26.384 132.163 26.384C132.6 26.384 132.968 26.336 133.267 26.24C133.576 26.1333 133.805 25.9893 133.955 25.808C134.115 25.616 134.195 25.3867 134.195 25.12C134.195 24.8427 134.099 24.608 133.907 24.416C133.725 24.2133 133.384 24.0587 132.883 23.952L130.739 23.472C130.12 23.3227 129.587 23.1307 129.139 22.896C128.701 22.6507 128.365 22.3413 128.131 21.968C127.907 21.584 127.795 21.1307 127.795 20.608C127.795 19.9787 127.965 19.4133 128.307 18.912C128.648 18.4107 129.139 18.016 129.779 17.728C130.429 17.4293 131.208 17.28 132.115 17.28ZM141.069 28.16C140.535 28.16 140.055 28.064 139.629 27.872C139.202 27.68 138.861 27.376 138.605 26.96C138.359 26.5333 138.237 25.984 138.237 25.312V20H140.429V24.784C140.429 25.4027 140.557 25.8347 140.813 26.08C141.069 26.3147 141.437 26.432 141.917 26.432C142.141 26.432 142.359 26.3947 142.573 26.32C142.786 26.2347 142.973 26.1067 143.133 25.936C143.303 25.7653 143.437 25.5467 143.533 25.28C143.629 25.0027 143.677 24.6773 143.677 24.304V20H145.869V28H143.917L143.837 26.608C143.57 27.1413 143.202 27.536 142.733 27.792C142.274 28.0373 141.719 28.16 141.069 28.16ZM152.879 28.16C152.389 28.16 151.941 28.0587 151.535 27.856C151.141 27.6427 150.81 27.3547 150.543 26.992C150.287 26.6187 150.111 26.2027 150.015 25.744L150.239 25.456L150.111 28H148.175V16.496H150.367V22.256L150.159 21.92C150.33 21.3227 150.655 20.8267 151.135 20.432C151.615 20.0373 152.218 19.84 152.943 19.84C153.573 19.84 154.143 20.0053 154.655 20.336C155.167 20.6667 155.567 21.1413 155.855 21.76C156.154 22.3787 156.303 23.1307 156.303 24.016C156.303 24.88 156.154 25.6213 155.855 26.24C155.567 26.8587 155.162 27.3333 154.639 27.664C154.127 27.9947 153.541 28.16 152.879 28.16ZM152.223 26.48C152.81 26.48 153.269 26.272 153.599 25.856C153.941 25.4293 154.111 24.8107 154.111 24C154.111 23.1893 153.946 22.576 153.615 22.16C153.285 21.7333 152.826 21.52 152.239 21.52C151.855 21.52 151.525 21.6213 151.247 21.824C150.97 22.0267 150.751 22.3147 150.591 22.688C150.442 23.0613 150.367 23.504 150.367 24.016C150.367 24.5387 150.442 24.9867 150.591 25.36C150.751 25.7227 150.97 26 151.247 26.192C151.535 26.384 151.861 26.48 152.223 26.48ZM161.407 28.16C160.596 28.16 159.855 28.016 159.183 27.728C158.521 27.44 157.983 27.0347 157.567 26.512L158.831 25.232C159.087 25.616 159.428 25.9307 159.855 26.176C160.281 26.4213 160.788 26.544 161.375 26.544C161.791 26.544 162.121 26.4853 162.367 26.368C162.623 26.24 162.751 26.0427 162.751 25.776C162.751 25.6053 162.692 25.4613 162.575 25.344C162.457 25.216 162.223 25.1147 161.871 25.04L160.463 24.752C159.535 24.56 158.873 24.272 158.479 23.888C158.095 23.4933 157.903 22.9867 157.903 22.368C157.903 21.9307 158.031 21.52 158.287 21.136C158.553 20.752 158.948 20.4427 159.471 20.208C159.993 19.9627 160.644 19.84 161.423 19.84C162.223 19.84 162.916 19.968 163.503 20.224C164.1 20.4693 164.569 20.8373 164.911 21.328L163.599 22.608C163.364 22.2347 163.055 21.952 162.671 21.76C162.297 21.5573 161.903 21.456 161.487 21.456C161.188 21.456 160.932 21.488 160.719 21.552C160.505 21.616 160.345 21.7067 160.239 21.824C160.132 21.9307 160.079 22.0693 160.079 22.24C160.079 22.4107 160.153 22.56 160.303 22.688C160.452 22.8053 160.724 22.9067 161.119 22.992L162.751 23.328C163.54 23.488 164.105 23.76 164.447 24.144C164.788 24.5173 164.959 24.9707 164.959 25.504C164.959 26.016 164.82 26.4747 164.543 26.88C164.276 27.2747 163.876 27.5893 163.343 27.824C162.82 28.048 162.175 28.16 161.407 28.16ZM170.307 19.84C171.022 19.84 171.625 19.9467 172.115 20.16C172.617 20.3627 173.017 20.6453 173.315 21.008C173.625 21.36 173.843 21.7547 173.971 22.192L171.923 22.928C171.817 22.448 171.635 22.0853 171.379 21.84C171.123 21.5947 170.777 21.472 170.339 21.472C169.934 21.472 169.587 21.568 169.299 21.76C169.011 21.9413 168.793 22.224 168.643 22.608C168.494 22.9813 168.419 23.4507 168.419 24.016C168.419 24.5813 168.494 25.0507 168.643 25.424C168.803 25.7973 169.027 26.0747 169.315 26.256C169.614 26.4373 169.961 26.528 170.355 26.528C170.675 26.528 170.947 26.4747 171.171 26.368C171.395 26.2507 171.577 26.0853 171.715 25.872C171.865 25.6587 171.966 25.4027 172.019 25.104L174.003 25.744C173.886 26.224 173.667 26.6453 173.347 27.008C173.027 27.3707 172.617 27.6533 172.115 27.856C171.614 28.0587 171.033 28.16 170.371 28.16C169.55 28.16 168.825 27.9947 168.195 27.664C167.566 27.3333 167.081 26.8587 166.739 26.24C166.398 25.6213 166.227 24.8747 166.227 24C166.227 23.1253 166.398 22.3787 166.739 21.76C167.081 21.1413 167.561 20.6667 168.179 20.336C168.798 20.0053 169.507 19.84 170.307 19.84ZM175.707 28V20H177.611L177.755 21.568C177.968 21.0133 178.277 20.5867 178.683 20.288C179.099 19.9893 179.616 19.84 180.235 19.84C180.416 19.84 180.581 19.856 180.731 19.888C180.88 19.92 181.003 19.9627 181.099 20.016L180.843 21.856C180.736 21.8133 180.603 21.7813 180.443 21.76C180.293 21.7387 180.096 21.728 179.851 21.728C179.531 21.728 179.221 21.808 178.923 21.968C178.624 22.1173 178.379 22.352 178.187 22.672C177.995 22.9813 177.899 23.376 177.899 23.856V28H175.707ZM183.561 18.848C183.102 18.848 182.761 18.752 182.537 18.56C182.313 18.3573 182.201 18.064 182.201 17.68C182.201 17.2853 182.313 16.992 182.537 16.8C182.761 16.5973 183.102 16.496 183.561 16.496C184.019 16.496 184.361 16.5973 184.585 16.8C184.809 16.992 184.921 17.2853 184.921 17.68C184.921 18.064 184.809 18.3573 184.585 18.56C184.361 18.752 184.019 18.848 183.561 18.848ZM184.649 20V28H182.457V20H184.649ZM191.676 28.16C191.186 28.16 190.738 28.0587 190.332 27.856C189.938 27.6427 189.607 27.3547 189.34 26.992C189.084 26.6187 188.908 26.2027 188.812 25.744L189.036 25.456L188.908 28H186.972V16.496H189.164V22.256L188.956 21.92C189.127 21.3227 189.452 20.8267 189.932 20.432C190.412 20.0373 191.015 19.84 191.74 19.84C192.37 19.84 192.94 20.0053 193.452 20.336C193.964 20.6667 194.364 21.1413 194.652 21.76C194.951 22.3787 195.1 23.1307 195.1 24.016C195.1 24.88 194.951 25.6213 194.652 26.24C194.364 26.8587 193.959 27.3333 193.436 27.664C192.924 27.9947 192.338 28.16 191.676 28.16ZM191.02 26.48C191.607 26.48 192.066 26.272 192.396 25.856C192.738 25.4293 192.908 24.8107 192.908 24C192.908 23.1893 192.743 22.576 192.412 22.16C192.082 21.7333 191.623 21.52 191.036 21.52C190.652 21.52 190.322 21.6213 190.044 21.824C189.767 22.0267 189.548 22.3147 189.388 22.688C189.239 23.0613 189.164 23.504 189.164 24.016C189.164 24.5387 189.239 24.9867 189.388 25.36C189.548 25.7227 189.767 26 190.044 26.192C190.332 26.384 190.658 26.48 191.02 26.48ZM200.716 28.16C199.873 28.16 199.137 27.9947 198.508 27.664C197.889 27.3333 197.409 26.8587 197.068 26.24C196.726 25.6213 196.556 24.8747 196.556 24C196.556 23.1253 196.726 22.3787 197.068 21.76C197.409 21.1413 197.884 20.6667 198.492 20.336C199.11 20.0053 199.814 19.84 200.604 19.84C201.414 19.84 202.102 20.0053 202.668 20.336C203.233 20.656 203.665 21.0987 203.964 21.664C204.262 22.2187 204.412 22.8533 204.412 23.568C204.412 23.7813 204.406 23.984 204.396 24.176C204.385 24.368 204.369 24.5387 204.348 24.688H197.964V23.168H203.388L202.332 23.552C202.332 22.88 202.177 22.3627 201.868 22C201.569 21.6373 201.142 21.456 200.588 21.456C200.182 21.456 199.83 21.552 199.532 21.744C199.244 21.936 199.025 22.224 198.876 22.608C198.726 22.9813 198.652 23.456 198.652 24.032C198.652 24.5973 198.732 25.0667 198.892 25.44C199.062 25.8027 199.297 26.0747 199.596 26.256C199.905 26.4373 200.273 26.528 200.7 26.528C201.169 26.528 201.548 26.4373 201.836 26.256C202.124 26.0747 202.348 25.824 202.508 25.504L204.252 26.176C204.081 26.592 203.82 26.9493 203.468 27.248C203.126 27.5467 202.716 27.776 202.236 27.936C201.766 28.0853 201.26 28.16 200.716 28.16Z" fill="white"/>
</svg>
