<svg width="68" height="14" viewBox="0 0 68 14" fill="none" xmlns="http://www.w3.org/2000/svg">
<path d="M11.2273 7.18182C11.2273 8.40909 11.0057 9.4697 10.5625 10.3636C10.1193 11.2576 9.51136 11.947 8.73864 12.4318C7.96591 12.9167 7.08333 13.1591 6.09091 13.1591C5.09849 13.1591 4.21591 12.9167 3.44318 12.4318C2.67045 11.947 2.0625 11.2576 1.61932 10.3636C1.17614 9.4697 0.954545 8.40909 0.954545 7.18182C0.954545 5.95455 1.17614 4.89394 1.61932 4C2.0625 3.10606 2.67045 2.41667 3.44318 1.93182C4.21591 1.44697 5.09849 1.20455 6.09091 1.20455C7.08333 1.20455 7.96591 1.44697 8.73864 1.93182C9.51136 2.41667 10.1193 3.10606 10.5625 4C11.0057 4.89394 11.2273 5.95455 11.2273 7.18182ZM9.86364 7.18182C9.86364 6.17424 9.69508 5.32386 9.35795 4.63068C9.02462 3.9375 8.57197 3.41288 8 3.05682C7.43182 2.70076 6.79545 2.52273 6.09091 2.52273C5.38636 2.52273 4.74811 2.70076 4.17614 3.05682C3.60795 3.41288 3.1553 3.9375 2.81818 4.63068C2.48485 5.32386 2.31818 6.17424 2.31818 7.18182C2.31818 8.18939 2.48485 9.03977 2.81818 9.73295C3.1553 10.4261 3.60795 10.9508 4.17614 11.3068C4.74811 11.6629 5.38636 11.8409 6.09091 11.8409C6.79545 11.8409 7.43182 11.6629 8 11.3068C8.57197 10.9508 9.02462 10.4261 9.35795 9.73295C9.69508 9.03977 9.86364 8.18939 9.86364 7.18182ZM12.4915 4.28C12.4915 3.256 12.9448 2.424 13.8515 1.784C14.7582 1.144 15.9688 0.823999 17.4835 0.823999C18.3902 0.823999 19.1848 0.930666 19.8675 1.144C20.5502 1.34667 21.0728 1.62933 21.4355 1.992C22.1608 2.70667 22.5235 3.528 22.5235 4.456C22.5235 5.384 22.1502 6.16267 21.4035 6.792C20.6675 7.41067 19.7235 7.72 18.5715 7.72C18.4435 7.72 18.2515 7.70933 17.9955 7.688L18.1395 6.52C19.5582 6.52 20.2675 5.85333 20.2675 4.52C20.2675 3.90133 20.0062 3.37867 19.4835 2.952C18.9395 2.504 18.1288 2.28 17.0515 2.28C15.9742 2.28 15.1208 2.55733 14.4915 3.112C14.1182 3.432 13.9315 3.77867 13.9315 4.152C13.9315 4.856 14.3528 5.256 15.1955 5.352L15.0035 6.536C14.2675 6.504 13.6648 6.26933 13.1955 5.832C12.7262 5.39467 12.4915 4.87733 12.4915 4.28ZM18.1235 3.112L17.4195 7.688C18.7742 8.33867 19.4515 9.29867 19.4515 10.568C19.4515 11.496 19.2062 12.152 18.7155 12.536C18.2355 12.9093 17.6542 13.096 16.9715 13.096C16.2888 13.096 15.7555 12.92 15.3715 12.568C14.9875 12.216 14.7955 11.7413 14.7955 11.144C14.7955 11.0053 14.8008 10.8987 14.8115 10.824L15.7715 3.416C16.3262 3.14933 16.7955 3.016 17.1795 3.016C17.5635 3.016 17.8782 3.048 18.1235 3.112ZM17.4355 11.64C17.6915 11.64 17.9102 11.5493 18.0915 11.368C18.2835 11.1867 18.3795 10.8827 18.3795 10.456C18.3795 9.69867 18.0168 9.10133 17.2915 8.664C17.1208 9.912 17.0355 10.664 17.0355 10.92C17.0355 11.1653 17.0728 11.3467 17.1475 11.464C17.2328 11.5813 17.3288 11.64 17.4355 11.64ZM23.5028 13V1.36364H30.5256V2.61364H24.9119V6.54545H30.1619V7.79545H24.9119V11.75H30.6165V13H23.5028ZM32.0653 1.36364H33.679L36.9062 6.79545H37.0426L40.2699 1.36364H41.8835L37.679 8.20455V13H36.2699V8.20455L32.0653 1.36364ZM43.706 13V1.36364H50.7287V2.61364H45.1151V6.54545H50.3651V7.79545H45.1151V11.75H50.8196V13H43.706ZM62.4194 0.936C62.6434 0.850666 62.958 0.808 63.3634 0.808C63.7687 0.808 64.1314 0.834666 64.4514 0.888C64.1207 3.34133 63.8594 5.56533 63.6674 7.56C63.486 9.544 63.3847 10.5893 63.3634 10.696C63.3527 10.8027 63.3474 10.8987 63.3474 10.984C63.358 11.2613 63.4914 11.4 63.7474 11.4C64.3874 11.4 65.278 10.664 66.4194 9.192C66.622 9.75733 66.7394 10.136 66.7714 10.328C66.2594 11.1387 65.6407 11.8053 64.9154 12.328C64.2007 12.84 63.5234 13.096 62.8834 13.096C62.2434 13.096 61.8007 12.9307 61.5554 12.6C61.31 12.2693 61.1874 11.9013 61.1874 11.496C61.1874 11.4 61.198 11.2133 61.2194 10.936C61.2514 10.6587 61.4647 8.93067 61.8594 5.752L59.2354 11.816H57.8754L57.0914 5.848L55.9714 10.808C55.79 11.5973 55.4914 12.1787 55.0754 12.552C54.67 12.9253 54.222 13.112 53.7314 13.112C53.2407 13.112 52.8407 12.968 52.5314 12.68C52.2007 12.3707 52.0354 11.9333 52.0354 11.368C52.0354 10.2373 52.91 9.272 54.6594 8.472C55.6087 3.91733 56.1207 1.39467 56.1954 0.903999C56.4514 0.84 56.7927 0.808 57.2194 0.808C57.6567 0.808 57.9554 0.818666 58.1154 0.839999H58.2274L59.2194 8.28L62.4194 1.016V0.936ZM53.1714 11.096C53.1714 11.4373 53.3047 11.608 53.5714 11.608C53.7527 11.608 53.902 11.464 54.0194 11.176C54.1687 10.824 54.2914 10.36 54.3874 9.784C53.5767 10.2427 53.1714 10.68 53.1714 11.096ZM67.6307 1.36364V13H66.2216V1.36364H67.6307Z" fill="#1E1E1E"/>
</svg>
