<svg width="300" height="46" viewBox="0 0 300 46" fill="none" xmlns="http://www.w3.org/2000/svg">
<rect x="0.5" y="0.5" width="299" height="45" rx="19.5" fill="white"/>
<rect x="0.5" y="0.5" width="299" height="45" rx="19.5" stroke="#858584"/>
<path d="M21.728 28V17.44H29.136V18.64H23.008V22.048H27.776V23.248H23.008V26.8H29.376V28H21.728ZM31.6911 28V20H32.8111L32.9231 21.792L32.7151 21.616C32.8858 21.1893 33.1151 20.848 33.4031 20.592C33.6911 20.3253 34.0218 20.1333 34.3951 20.016C34.7791 19.8987 35.1738 19.84 35.5791 19.84C36.1551 19.84 36.6778 19.952 37.1471 20.176C37.6165 20.3893 37.9898 20.72 38.2671 21.168C38.5551 21.616 38.6991 22.1867 38.6991 22.88V28H37.4191V23.328C37.4191 22.4427 37.2271 21.8293 36.8431 21.488C36.4698 21.136 36.0058 20.96 35.4511 20.96C35.0671 20.96 34.6831 21.0507 34.2991 21.232C33.9151 21.4133 33.5951 21.7067 33.3391 22.112C33.0938 22.5173 32.9711 23.0613 32.9711 23.744V28H31.6911ZM43.376 17.728V25.792C43.376 26.1867 43.488 26.48 43.712 26.672C43.936 26.864 44.224 26.96 44.576 26.96C44.8853 26.96 45.152 26.9067 45.376 26.8C45.6 26.6933 45.8027 26.5493 45.984 26.368L46.432 27.44C46.1867 27.664 45.8933 27.84 45.552 27.968C45.2213 28.096 44.8373 28.16 44.4 28.16C43.9947 28.16 43.616 28.0907 43.264 27.952C42.912 27.8027 42.6293 27.5733 42.416 27.264C42.2133 26.944 42.1067 26.528 42.096 26.016V18.08L43.376 17.728ZM46.288 20V21.104H40.496V20H46.288ZM51.5351 28.16C50.7778 28.16 50.1005 27.9947 49.5031 27.664C48.9165 27.3333 48.4578 26.8587 48.1271 26.24C47.7965 25.6107 47.6311 24.864 47.6311 24C47.6311 23.136 47.7965 22.3947 48.1271 21.776C48.4578 21.1467 48.9111 20.6667 49.4871 20.336C50.0631 20.0053 50.7191 19.84 51.4551 19.84C52.2018 19.84 52.8365 20 53.3591 20.32C53.8925 20.64 54.2978 21.0773 54.5751 21.632C54.8525 22.176 54.9911 22.7893 54.9911 23.472C54.9911 23.6533 54.9858 23.8187 54.9751 23.968C54.9645 24.1173 54.9485 24.2507 54.9271 24.368H48.4631V23.232H54.3671L53.7111 23.36C53.7111 22.592 53.4978 22 53.0711 21.584C52.6551 21.168 52.1058 20.96 51.4231 20.96C50.9005 20.96 50.4471 21.0827 50.0631 21.328C49.6898 21.5627 49.3965 21.9093 49.1831 22.368C48.9805 22.816 48.8791 23.36 48.8791 24C48.8791 24.6293 48.9858 25.1733 49.1991 25.632C49.4125 26.0907 49.7111 26.4427 50.0951 26.688C50.4898 26.9227 50.9591 27.04 51.5031 27.04C52.0898 27.04 52.5645 26.928 52.9271 26.704C53.3005 26.48 53.5991 26.176 53.8231 25.792L54.8311 26.384C54.6285 26.7467 54.3671 27.0613 54.0471 27.328C53.7378 27.5947 53.3698 27.8027 52.9431 27.952C52.5271 28.0907 52.0578 28.16 51.5351 28.16ZM57.4255 28V20H58.4655L58.6415 21.312C58.8655 20.8213 59.1908 20.4533 59.6175 20.208C60.0548 19.9627 60.5828 19.84 61.2015 19.84C61.3402 19.84 61.4895 19.8507 61.6495 19.872C61.8202 19.8933 61.9642 19.936 62.0815 20L61.8575 21.168C61.7402 21.1253 61.6122 21.0933 61.4735 21.072C61.3348 21.0507 61.1375 21.04 60.8815 21.04C60.5508 21.04 60.2148 21.136 59.8735 21.328C59.5428 21.52 59.2655 21.8133 59.0415 22.208C58.8175 22.592 58.7055 23.0827 58.7055 23.68V28H57.4255ZM75.867 17.44L72.091 23.872V28H70.811V23.872L67.035 17.44H68.555L70.603 21.056L71.451 22.56L72.299 21.056L74.347 17.44H75.867ZM79.675 19.84C80.4323 19.84 81.099 20.0053 81.675 20.336C82.2617 20.6667 82.7203 21.1467 83.051 21.776C83.3817 22.3947 83.547 23.136 83.547 24C83.547 24.864 83.3817 25.6107 83.051 26.24C82.7203 26.8587 82.2617 27.3333 81.675 27.664C81.099 27.9947 80.4323 28.16 79.675 28.16C78.9283 28.16 78.2617 27.9947 77.675 27.664C77.0883 27.3333 76.6297 26.8587 76.299 26.24C75.9683 25.6107 75.803 24.864 75.803 24C75.803 23.136 75.9683 22.3947 76.299 21.776C76.6297 21.1467 77.0883 20.6667 77.675 20.336C78.2617 20.0053 78.9283 19.84 79.675 19.84ZM79.675 20.944C79.131 20.944 78.667 21.0667 78.283 21.312C77.899 21.5573 77.6003 21.9093 77.387 22.368C77.1843 22.816 77.083 23.36 77.083 24C77.083 24.6293 77.1843 25.1733 77.387 25.632C77.6003 26.0907 77.899 26.4427 78.283 26.688C78.667 26.9333 79.131 27.056 79.675 27.056C80.219 27.056 80.683 26.9333 81.067 26.688C81.451 26.4427 81.7443 26.0907 81.947 25.632C82.1603 25.1733 82.267 24.6293 82.267 24C82.267 23.36 82.1603 22.816 81.947 22.368C81.7443 21.9093 81.451 21.5573 81.067 21.312C80.683 21.0667 80.219 20.944 79.675 20.944ZM88.8528 28.16C88.3408 28.16 87.8554 28.064 87.3968 27.872C86.9488 27.68 86.5808 27.3707 86.2928 26.944C86.0154 26.5067 85.8768 25.9413 85.8768 25.248V20H87.1568V24.912C87.1568 25.7227 87.3328 26.2827 87.6848 26.592C88.0368 26.8907 88.5328 27.04 89.1727 27.04C89.4714 27.04 89.7648 26.992 90.0528 26.896C90.3408 26.7893 90.5968 26.6293 90.8208 26.416C91.0554 26.192 91.2368 25.9093 91.3648 25.568C91.5034 25.2267 91.5728 24.8213 91.5728 24.352V20H92.8528V28H91.7328L91.6528 26.784C91.3754 27.264 90.9968 27.616 90.5168 27.84C90.0474 28.0533 89.4928 28.16 88.8528 28.16ZM95.8318 28V20H96.8718L97.0478 21.312C97.2718 20.8213 97.5971 20.4533 98.0238 20.208C98.4611 19.9627 98.9891 19.84 99.6078 19.84C99.7464 19.84 99.8958 19.8507 100.056 19.872C100.226 19.8933 100.37 19.936 100.488 20L100.264 21.168C100.146 21.1253 100.018 21.0933 99.8798 21.072C99.7411 21.0507 99.5438 21.04 99.2878 21.04C98.9571 21.04 98.6211 21.136 98.2798 21.328C97.9491 21.52 97.6718 21.8133 97.4478 22.208C97.2238 22.592 97.1118 23.0827 97.1118 23.68V28H95.8318ZM107.681 28V17.44H115.089V18.64H108.961V22.048H113.729V23.248H108.961V26.8H115.329V28H107.681ZM117.644 28V20H118.764L118.844 21.248C119.132 20.7573 119.506 20.4 119.964 20.176C120.434 19.952 120.914 19.84 121.404 19.84C121.97 19.84 122.503 19.968 123.004 20.224C123.506 20.48 123.89 20.8747 124.156 21.408C124.327 21.0453 124.567 20.752 124.876 20.528C125.186 20.2933 125.522 20.1227 125.884 20.016C126.258 19.8987 126.61 19.84 126.94 19.84C127.452 19.84 127.938 19.9467 128.396 20.16C128.866 20.3733 129.25 20.704 129.548 21.152C129.847 21.6 129.996 22.176 129.996 22.88V28H128.716V23.008C128.716 22.2827 128.535 21.76 128.172 21.44C127.81 21.12 127.362 20.96 126.828 20.96C126.412 20.96 126.023 21.0613 125.66 21.264C125.298 21.4667 125.004 21.7653 124.78 22.16C124.567 22.5547 124.46 23.04 124.46 23.616V28H123.18V23.008C123.18 22.2827 122.999 21.76 122.636 21.44C122.274 21.12 121.826 20.96 121.292 20.96C120.94 20.96 120.578 21.056 120.204 21.248C119.842 21.4293 119.538 21.7227 119.292 22.128C119.047 22.5333 118.924 23.0667 118.924 23.728V28H117.644ZM137.566 22.832C137.566 22.2347 137.406 21.776 137.086 21.456C136.766 21.1253 136.313 20.96 135.726 20.96C135.172 20.96 134.702 21.0827 134.318 21.328C133.934 21.5627 133.652 21.9467 133.47 22.48L132.43 21.84C132.644 21.2427 133.038 20.7627 133.614 20.4C134.19 20.0267 134.905 19.84 135.758 19.84C136.334 19.84 136.857 19.9413 137.326 20.144C137.796 20.336 138.164 20.6347 138.43 21.04C138.708 21.4347 138.846 21.9467 138.846 22.576V26.448C138.846 26.832 139.049 27.024 139.454 27.024C139.657 27.024 139.854 26.9973 140.046 26.944L139.982 27.952C139.769 28.0587 139.492 28.112 139.15 28.112C138.841 28.112 138.564 28.0533 138.318 27.936C138.073 27.8187 137.881 27.6427 137.742 27.408C137.604 27.1627 137.534 26.8587 137.534 26.496V26.336L137.854 26.384C137.726 26.8 137.508 27.1413 137.198 27.408C136.889 27.664 136.542 27.856 136.158 27.984C135.774 28.1013 135.396 28.16 135.022 28.16C134.553 28.16 134.116 28.08 133.71 27.92C133.305 27.76 132.98 27.52 132.734 27.2C132.5 26.8693 132.382 26.464 132.382 25.984C132.382 25.3867 132.58 24.896 132.974 24.512C133.38 24.1173 133.94 23.8507 134.654 23.712L137.822 23.088V24.144L135.246 24.672C134.724 24.7787 134.334 24.928 134.078 25.12C133.822 25.312 133.694 25.5787 133.694 25.92C133.694 26.2507 133.822 26.5227 134.078 26.736C134.345 26.9387 134.718 27.04 135.198 27.04C135.508 27.04 135.801 27.0027 136.078 26.928C136.366 26.8427 136.622 26.72 136.846 26.56C137.07 26.3893 137.246 26.1813 137.374 25.936C137.502 25.68 137.566 25.3813 137.566 25.04V22.832ZM142.597 18.464C142.309 18.464 142.074 18.3787 141.893 18.208C141.722 18.0267 141.637 17.792 141.637 17.504C141.637 17.216 141.722 16.9867 141.893 16.816C142.074 16.6347 142.309 16.544 142.597 16.544C142.885 16.544 143.114 16.6347 143.285 16.816C143.466 16.9867 143.557 17.216 143.557 17.504C143.557 17.792 143.466 18.0267 143.285 18.208C143.114 18.3787 142.885 18.464 142.597 18.464ZM143.237 20V28H141.957V20H143.237ZM147.423 16.32V25.968C147.423 26.3733 147.497 26.656 147.647 26.816C147.796 26.9653 148.036 27.04 148.367 27.04C148.58 27.04 148.756 27.024 148.895 26.992C149.033 26.96 149.22 26.9013 149.455 26.816L149.247 27.936C149.076 28.0107 148.889 28.064 148.687 28.096C148.484 28.1387 148.276 28.16 148.063 28.16C147.412 28.16 146.927 27.984 146.607 27.632C146.297 27.28 146.143 26.7413 146.143 26.016V16.32H147.423ZM164.003 28H162.643L161.523 25.072H156.739L155.619 28H154.275L158.387 17.44H159.907L164.003 28ZM157.203 23.872H161.059L159.123 18.672L157.203 23.872ZM168.889 28.16C168.228 28.16 167.62 27.9947 167.065 27.664C166.511 27.3333 166.068 26.8587 165.737 26.24C165.407 25.6107 165.241 24.864 165.241 24C165.241 23.1147 165.417 22.3627 165.769 21.744C166.121 21.1253 166.585 20.656 167.161 20.336C167.737 20.0053 168.356 19.84 169.017 19.84C169.679 19.84 170.249 20.0107 170.729 20.352C171.22 20.6933 171.545 21.1467 171.705 21.712L171.545 21.824V16.32H172.825V28H171.705L171.593 26.064L171.769 25.968C171.695 26.4373 171.513 26.8373 171.225 27.168C170.948 27.488 170.601 27.7333 170.185 27.904C169.78 28.0747 169.348 28.16 168.889 28.16ZM169.017 27.04C169.529 27.04 169.972 26.912 170.345 26.656C170.729 26.4 171.023 26.0373 171.225 25.568C171.439 25.088 171.545 24.528 171.545 23.888C171.545 23.28 171.439 22.7573 171.225 22.32C171.023 21.8827 170.735 21.5467 170.361 21.312C169.999 21.0773 169.572 20.96 169.081 20.96C168.271 20.96 167.641 21.2373 167.193 21.792C166.745 22.3467 166.521 23.0827 166.521 24C166.521 24.9173 166.74 25.6533 167.177 26.208C167.615 26.7627 168.228 27.04 169.017 27.04ZM178.921 28.16C178.259 28.16 177.651 27.9947 177.097 27.664C176.542 27.3333 176.099 26.8587 175.769 26.24C175.438 25.6107 175.273 24.864 175.273 24C175.273 23.1147 175.449 22.3627 175.801 21.744C176.153 21.1253 176.617 20.656 177.193 20.336C177.769 20.0053 178.387 19.84 179.049 19.84C179.71 19.84 180.281 20.0107 180.761 20.352C181.251 20.6933 181.577 21.1467 181.737 21.712L181.577 21.824V16.32H182.857V28H181.737L181.625 26.064L181.801 25.968C181.726 26.4373 181.545 26.8373 181.257 27.168C180.979 27.488 180.633 27.7333 180.217 27.904C179.811 28.0747 179.379 28.16 178.921 28.16ZM179.049 27.04C179.561 27.04 180.003 26.912 180.377 26.656C180.761 26.4 181.054 26.0373 181.257 25.568C181.47 25.088 181.577 24.528 181.577 23.888C181.577 23.28 181.47 22.7573 181.257 22.32C181.054 21.8827 180.766 21.5467 180.393 21.312C180.03 21.0773 179.603 20.96 179.113 20.96C178.302 20.96 177.673 21.2373 177.225 21.792C176.777 22.3467 176.553 23.0827 176.553 24C176.553 24.9173 176.771 25.6533 177.209 26.208C177.646 26.7627 178.259 27.04 179.049 27.04ZM185.832 28V20H186.872L187.048 21.312C187.272 20.8213 187.597 20.4533 188.024 20.208C188.461 19.9627 188.989 19.84 189.608 19.84C189.746 19.84 189.896 19.8507 190.056 19.872C190.226 19.8933 190.37 19.936 190.488 20L190.264 21.168C190.146 21.1253 190.018 21.0933 189.88 21.072C189.741 21.0507 189.544 21.04 189.288 21.04C188.957 21.04 188.621 21.136 188.28 21.328C187.949 21.52 187.672 21.8133 187.448 22.208C187.224 22.592 187.112 23.0827 187.112 23.68V28H185.832ZM195.457 28.16C194.7 28.16 194.022 27.9947 193.425 27.664C192.838 27.3333 192.38 26.8587 192.049 26.24C191.718 25.6107 191.553 24.864 191.553 24C191.553 23.136 191.718 22.3947 192.049 21.776C192.38 21.1467 192.833 20.6667 193.409 20.336C193.985 20.0053 194.641 19.84 195.377 19.84C196.124 19.84 196.758 20 197.281 20.32C197.814 20.64 198.22 21.0773 198.497 21.632C198.774 22.176 198.913 22.7893 198.913 23.472C198.913 23.6533 198.908 23.8187 198.897 23.968C198.886 24.1173 198.87 24.2507 198.849 24.368H192.385V23.232H198.289L197.633 23.36C197.633 22.592 197.42 22 196.993 21.584C196.577 21.168 196.028 20.96 195.345 20.96C194.822 20.96 194.369 21.0827 193.985 21.328C193.612 21.5627 193.318 21.9093 193.105 22.368C192.902 22.816 192.801 23.36 192.801 24C192.801 24.6293 192.908 25.1733 193.121 25.632C193.334 26.0907 193.633 26.4427 194.017 26.688C194.412 26.9227 194.881 27.04 195.425 27.04C196.012 27.04 196.486 26.928 196.849 26.704C197.222 26.48 197.521 26.176 197.745 25.792L198.753 26.384C198.55 26.7467 198.289 27.0613 197.969 27.328C197.66 27.5947 197.292 27.8027 196.865 27.952C196.449 28.0907 195.98 28.16 195.457 28.16ZM204.227 28.16C203.449 28.16 202.729 27.9947 202.067 27.664C201.417 27.3333 200.915 26.864 200.563 26.256L201.651 25.472C201.886 25.9627 202.227 26.3467 202.675 26.624C203.134 26.9013 203.683 27.04 204.323 27.04C204.889 27.04 205.331 26.9333 205.651 26.72C205.971 26.496 206.131 26.208 206.131 25.856C206.131 25.632 206.057 25.4293 205.907 25.248C205.769 25.056 205.497 24.9173 205.091 24.832L203.171 24.432C202.393 24.272 201.833 24.0053 201.491 23.632C201.161 23.2587 200.995 22.7947 200.995 22.24C200.995 21.8027 201.118 21.4027 201.363 21.04C201.619 20.6773 201.977 20.3893 202.435 20.176C202.905 19.952 203.454 19.84 204.083 19.84C204.873 19.84 205.539 19.9947 206.083 20.304C206.627 20.6133 207.033 21.0507 207.299 21.616L206.227 22.32C206.046 21.8507 205.753 21.5093 205.347 21.296C204.942 21.072 204.521 20.96 204.083 20.96C203.699 20.96 203.369 21.0133 203.091 21.12C202.825 21.2267 202.617 21.376 202.467 21.568C202.329 21.7493 202.259 21.9573 202.259 22.192C202.259 22.4267 202.339 22.6453 202.499 22.848C202.659 23.04 202.958 23.1787 203.395 23.264L205.395 23.68C206.142 23.8293 206.665 24.0747 206.963 24.416C207.262 24.7573 207.411 25.1733 207.411 25.664C207.411 26.1653 207.278 26.608 207.011 26.992C206.745 27.3653 206.371 27.6533 205.891 27.856C205.411 28.0587 204.857 28.16 204.227 28.16ZM212.665 28.16C211.886 28.16 211.166 27.9947 210.505 27.664C209.854 27.3333 209.353 26.864 209.001 26.256L210.089 25.472C210.324 25.9627 210.665 26.3467 211.113 26.624C211.572 26.9013 212.121 27.04 212.761 27.04C213.326 27.04 213.769 26.9333 214.089 26.72C214.409 26.496 214.569 26.208 214.569 25.856C214.569 25.632 214.494 25.4293 214.345 25.248C214.206 25.056 213.934 24.9173 213.529 24.832L211.609 24.432C210.83 24.272 210.27 24.0053 209.929 23.632C209.598 23.2587 209.433 22.7947 209.433 22.24C209.433 21.8027 209.556 21.4027 209.801 21.04C210.057 20.6773 210.414 20.3893 210.873 20.176C211.342 19.952 211.892 19.84 212.521 19.84C213.31 19.84 213.977 19.9947 214.521 20.304C215.065 20.6133 215.47 21.0507 215.737 21.616L214.665 22.32C214.484 21.8507 214.19 21.5093 213.785 21.296C213.38 21.072 212.958 20.96 212.521 20.96C212.137 20.96 211.806 21.0133 211.529 21.12C211.262 21.2267 211.054 21.376 210.905 21.568C210.766 21.7493 210.697 21.9573 210.697 22.192C210.697 22.4267 210.777 22.6453 210.937 22.848C211.097 23.04 211.396 23.1787 211.833 23.264L213.833 23.68C214.58 23.8293 215.102 24.0747 215.401 24.416C215.7 24.7573 215.849 25.1733 215.849 25.664C215.849 26.1653 215.716 26.608 215.449 26.992C215.182 27.3653 214.809 27.6533 214.329 27.856C213.849 28.0587 213.294 28.16 212.665 28.16Z" fill="#2B2B2B"/>
</svg>
