<svg width="29" height="24" viewBox="0 0 29 24" fill="none" xmlns="http://www.w3.org/2000/svg">
<path d="M13.2927 6.00045C13.2927 3.25045 15.6052 0.962955 18.3552 1.00045C19.3182 1.01157 20.2576 1.3006 21.0603 1.8328C21.863 2.365 22.495 3.11771 22.8802 4.00045H27.2927L23.2552 8.03795C22.9946 12.0937 21.1993 15.8979 18.2342 18.6773C15.269 21.4566 11.3567 23.0025 7.29267 23.0005C3.29267 23.0005 2.29267 21.5005 2.29267 21.5005C2.29267 21.5005 6.29267 20.0005 8.29267 17.0005C8.29267 17.0005 0.292667 13.0005 2.29267 2.00045C2.29267 2.00045 7.29267 7.00045 13.2927 8.00045V6.00045Z" stroke="#858584" stroke-width="2" stroke-linecap="round" stroke-linejoin="round"/>
</svg>
